%TF.GenerationSoftware,KiCad,Pcbnew,7.0.5*%
%TF.CreationDate,2023-06-26T00:24:40-05:00*%
%TF.ProjectId,PCB GPS,50434220-4750-4532-9e6b-696361645f70,rev?*%
%TF.SameCoordinates,Original*%
%TF.FileFunction,Copper,L1,Top*%
%TF.FilePolarity,Positive*%
%FSLAX46Y46*%
G04 Gerber Fmt 4.6, Leading zero omitted, Abs format (unit mm)*
G04 Created by KiCad (PCBNEW 7.0.5) date 2023-06-26 00:24:40*
%MOMM*%
%LPD*%
G01*
G04 APERTURE LIST*
G04 Aperture macros list*
%AMRoundRect*
0 Rectangle with rounded corners*
0 $1 Rounding radius*
0 $2 $3 $4 $5 $6 $7 $8 $9 X,Y pos of 4 corners*
0 Add a 4 corners polygon primitive as box body*
4,1,4,$2,$3,$4,$5,$6,$7,$8,$9,$2,$3,0*
0 Add four circle primitives for the rounded corners*
1,1,$1+$1,$2,$3*
1,1,$1+$1,$4,$5*
1,1,$1+$1,$6,$7*
1,1,$1+$1,$8,$9*
0 Add four rect primitives between the rounded corners*
20,1,$1+$1,$2,$3,$4,$5,0*
20,1,$1+$1,$4,$5,$6,$7,0*
20,1,$1+$1,$6,$7,$8,$9,0*
20,1,$1+$1,$8,$9,$2,$3,0*%
G04 Aperture macros list end*
%TA.AperFunction,SMDPad,CuDef*%
%ADD10R,4.800000X4.800000*%
%TD*%
%TA.AperFunction,SMDPad,CuDef*%
%ADD11RoundRect,0.075000X-0.075000X-0.312500X0.075000X-0.312500X0.075000X0.312500X-0.075000X0.312500X0*%
%TD*%
%TA.AperFunction,SMDPad,CuDef*%
%ADD12RoundRect,0.075000X-0.312500X-0.075000X0.312500X-0.075000X0.312500X0.075000X-0.312500X0.075000X0*%
%TD*%
%TA.AperFunction,SMDPad,CuDef*%
%ADD13RoundRect,0.200000X-0.700000X-0.200000X0.700000X-0.200000X0.700000X0.200000X-0.700000X0.200000X0*%
%TD*%
%TA.AperFunction,HeatsinkPad*%
%ADD14C,0.600000*%
%TD*%
%TA.AperFunction,SMDPad,CuDef*%
%ADD15R,1.050000X1.050000*%
%TD*%
%TA.AperFunction,SMDPad,CuDef*%
%ADD16R,4.200000X4.200000*%
%TD*%
%TA.AperFunction,SMDPad,CuDef*%
%ADD17R,1.500000X0.900000*%
%TD*%
%TA.AperFunction,SMDPad,CuDef*%
%ADD18R,0.900000X1.500000*%
%TD*%
%TA.AperFunction,ComponentPad*%
%ADD19R,1.700000X1.700000*%
%TD*%
%TA.AperFunction,ComponentPad*%
%ADD20O,1.700000X1.700000*%
%TD*%
%TA.AperFunction,ComponentPad*%
%ADD21C,3.000000*%
%TD*%
%TA.AperFunction,ComponentPad*%
%ADD22R,3.000000X3.000000*%
%TD*%
%TA.AperFunction,Conductor*%
%ADD23C,0.250000*%
%TD*%
G04 APERTURE END LIST*
D10*
%TO.P,U5,29,GND*%
%TO.N,Net-(J5-Pin_1)*%
X148305000Y-132080000D03*
D11*
%TO.P,U5,28,RFO_LF*%
%TO.N,unconnected-(U5-RFO_LF-Pad28)*%
X146355000Y-129092500D03*
%TO.P,U5,27,PA_BOOST*%
%TO.N,unconnected-(U5-PA_BOOST-Pad27)*%
X147005000Y-129092500D03*
%TO.P,U5,26,GND*%
%TO.N,Net-(J5-Pin_1)*%
X147655000Y-129092500D03*
%TO.P,U5,25,VR_PA*%
%TO.N,unconnected-(U5-VR_PA-Pad25)*%
X148305000Y-129092500D03*
%TO.P,U5,24,VBAT_RF*%
%TO.N,Net-(J4-Pin_1)*%
X148955000Y-129092500D03*
%TO.P,U5,23,GND*%
%TO.N,Net-(J5-Pin_1)*%
X149605000Y-129092500D03*
%TO.P,U5,22,RFO_HF*%
%TO.N,unconnected-(U5-RFO_HF-Pad22)*%
X150255000Y-129092500D03*
D12*
%TO.P,U5,21,RFI_HF*%
%TO.N,unconnected-(U5-RFI_HF-Pad21)*%
X151292500Y-130130000D03*
%TO.P,U5,20,RXTX/RF_MOD*%
%TO.N,Net-(J6-Pin_1)*%
X151292500Y-130780000D03*
%TO.P,U5,19,NSS*%
%TO.N,Net-(J18-Pin_1)*%
X151292500Y-131430000D03*
%TO.P,U5,18,MOSI*%
%TO.N,Net-(J17-Pin_1)*%
X151292500Y-132080000D03*
%TO.P,U5,17,MISO*%
%TO.N,Net-(J16-Pin_1)*%
X151292500Y-132730000D03*
%TO.P,U5,16,SCK*%
%TO.N,Net-(J15-Pin_1)*%
X151292500Y-133380000D03*
%TO.P,U5,15,GND*%
%TO.N,Net-(J5-Pin_1)*%
X151292500Y-134030000D03*
D11*
%TO.P,U5,14,VBAT_DIG*%
%TO.N,Net-(J8-Pin_1)*%
X150255000Y-135067500D03*
%TO.P,U5,13,DIO5*%
%TO.N,unconnected-(U5-DIO5-Pad13)*%
X149605000Y-135067500D03*
%TO.P,U5,12,DIO4*%
%TO.N,unconnected-(U5-DIO4-Pad12)*%
X148955000Y-135067500D03*
%TO.P,U5,11,DIO3*%
%TO.N,unconnected-(U5-DIO3-Pad11)*%
X148305000Y-135067500D03*
%TO.P,U5,10,DIO2*%
%TO.N,unconnected-(U5-DIO2-Pad10)*%
X147655000Y-135067500D03*
%TO.P,U5,9,DIO1*%
%TO.N,Net-(J2-Pin_1)*%
X147005000Y-135067500D03*
%TO.P,U5,8,DIO0*%
%TO.N,unconnected-(U5-DIO0-Pad8)*%
X146355000Y-135067500D03*
D12*
%TO.P,U5,7,~{RESET}*%
%TO.N,Net-(J1-Pin_1)*%
X145317500Y-134030000D03*
%TO.P,U5,6,XTB*%
%TO.N,unconnected-(U5-XTB-Pad6)*%
X145317500Y-133380000D03*
%TO.P,U5,5,XTA*%
%TO.N,unconnected-(U5-XTA-Pad5)*%
X145317500Y-132730000D03*
%TO.P,U5,4,VR_DIG*%
%TO.N,Net-(J3-Pin_1)*%
X145317500Y-132080000D03*
%TO.P,U5,3,VBAT_ANA*%
%TO.N,Net-(J14-Pin_1)*%
X145317500Y-131430000D03*
%TO.P,U5,2,VR_ANA*%
%TO.N,Net-(J7-Pin_1)*%
X145317500Y-130780000D03*
%TO.P,U5,1,RFI_LF*%
%TO.N,unconnected-(U5-RFI_LF-Pad1)*%
X145317500Y-130130000D03*
%TD*%
D13*
%TO.P,U4,24,GND*%
%TO.N,Net-(J11-Pin_1)*%
X135875000Y-90090000D03*
%TO.P,U4,23,VCC*%
%TO.N,Net-(J9-Pin_1)*%
X135875000Y-91190000D03*
%TO.P,U4,22,V_BCKP*%
%TO.N,unconnected-(U4-V_BCKP-Pad22)*%
X135875000Y-92290000D03*
%TO.P,U4,21,RXD1*%
%TO.N,Net-(J10-Pin_1)*%
X135875000Y-93390000D03*
%TO.P,U4,20,TXD1*%
%TO.N,Net-(J10-Pin_2)*%
X135875000Y-94490000D03*
%TO.P,U4,19,SCL2*%
%TO.N,unconnected-(U4-SCL2-Pad19)*%
X135875000Y-95590000D03*
%TO.P,U4,18,SDA2*%
%TO.N,unconnected-(U4-SDA2-Pad18)*%
X135875000Y-96690000D03*
%TO.P,U4,17,RSVD_17*%
%TO.N,unconnected-(U4-RSVD_17-Pad17)*%
X135875000Y-99690000D03*
%TO.P,U4,16,CFG_GPS0/SCK*%
%TO.N,unconnected-(U4-CFG_GPS0{slash}SCK-Pad16)*%
X135875000Y-100790000D03*
%TO.P,U4,15,MISO/CFG_COM1*%
%TO.N,unconnected-(U4-MISO{slash}CFG_COM1-Pad15)*%
X135875000Y-101890000D03*
%TO.P,U4,14,MOSI/CFG_COM0*%
%TO.N,unconnected-(U4-MOSI{slash}CFG_COM0-Pad14)*%
X135875000Y-102990000D03*
%TO.P,U4,13,GND*%
%TO.N,Net-(J11-Pin_1)*%
X135875000Y-104090000D03*
%TO.P,U4,12,GND*%
X123875000Y-104090000D03*
%TO.P,U4,11,RF_IN*%
%TO.N,unconnected-(U4-RF_IN-Pad11)*%
X123875000Y-102990000D03*
%TO.P,U4,10,GND*%
%TO.N,Net-(J11-Pin_1)*%
X123875000Y-101890000D03*
%TO.P,U4,9,VCC_RF*%
%TO.N,unconnected-(U4-VCC_RF-Pad9)*%
X123875000Y-100790000D03*
%TO.P,U4,8,RSVD_8*%
%TO.N,unconnected-(U4-RSVD_8-Pad8)*%
X123875000Y-99690000D03*
%TO.P,U4,7,VDDUSB*%
%TO.N,unconnected-(U4-VDDUSB-Pad7)*%
X123875000Y-96690000D03*
%TO.P,U4,6,USB_DP*%
%TO.N,unconnected-(U4-USB_DP-Pad6)*%
X123875000Y-95590000D03*
%TO.P,U4,5,USB_DM*%
%TO.N,unconnected-(U4-USB_DM-Pad5)*%
X123875000Y-94490000D03*
%TO.P,U4,4,EXTINT0*%
%TO.N,unconnected-(U4-EXTINT0-Pad4)*%
X123875000Y-93390000D03*
%TO.P,U4,3,TIMEPULSE*%
%TO.N,unconnected-(U4-TIMEPULSE-Pad3)*%
X123875000Y-92290000D03*
%TO.P,U4,2,SS_N*%
%TO.N,unconnected-(U4-SS_N-Pad2)*%
X123875000Y-91190000D03*
%TO.P,U4,1*%
%TO.N,N/C*%
X123875000Y-90090000D03*
%TD*%
D14*
%TO.P,U3,39,GND*%
%TO.N,Net-(J12-Pin_1)*%
X131400000Y-46542500D03*
D15*
X131400000Y-47305000D03*
D14*
X132925000Y-48067500D03*
D16*
X131400000Y-47305000D03*
D14*
X130637500Y-47305000D03*
D15*
X131400000Y-45780000D03*
D14*
X132162500Y-47305000D03*
D15*
X132925000Y-45780000D03*
X129875000Y-48830000D03*
X129875000Y-47305000D03*
X132925000Y-47305000D03*
D14*
X131400000Y-48067500D03*
X132925000Y-46542500D03*
X130637500Y-45780000D03*
X130637500Y-48830000D03*
D15*
X131400000Y-48830000D03*
X132925000Y-48830000D03*
D14*
X129875000Y-48067500D03*
X132162500Y-45780000D03*
D15*
X129875000Y-45780000D03*
D14*
X132162500Y-48830000D03*
X129875000Y-46542500D03*
D17*
%TO.P,U3,38,GND*%
X140830000Y-39965000D03*
%TO.P,U3,37,IO23*%
%TO.N,Net-(J35-Pin_1)*%
X140830000Y-41235000D03*
%TO.P,U3,36,IO22*%
%TO.N,Net-(J34-Pin_1)*%
X140830000Y-42505000D03*
%TO.P,U3,35,TXD0/IO1*%
%TO.N,Net-(J20-Pin_1)*%
X140830000Y-43775000D03*
%TO.P,U3,34,RXD0/IO3*%
%TO.N,Net-(J22-Pin_1)*%
X140830000Y-45045000D03*
%TO.P,U3,33,IO21*%
%TO.N,Net-(J33-Pin_1)*%
X140830000Y-46315000D03*
%TO.P,U3,32,NC*%
%TO.N,unconnected-(U3-NC-Pad32)*%
X140830000Y-47585000D03*
%TO.P,U3,31,IO19*%
%TO.N,Net-(J32-Pin_1)*%
X140830000Y-48855000D03*
%TO.P,U3,30,IO18*%
%TO.N,Net-(J31-Pin_1)*%
X140830000Y-50125000D03*
%TO.P,U3,29,IO5*%
%TO.N,Net-(J24-Pin_1)*%
X140830000Y-51395000D03*
%TO.P,U3,28,IO17*%
%TO.N,Net-(J30-Pin_1)*%
X140830000Y-52665000D03*
%TO.P,U3,27,IO16*%
%TO.N,Net-(J29-Pin_1)*%
X140830000Y-53935000D03*
%TO.P,U3,26,IO4*%
%TO.N,Net-(J23-Pin_1)*%
X140830000Y-55205000D03*
%TO.P,U3,25,IO0*%
%TO.N,Net-(J19-Pin_1)*%
X140830000Y-56475000D03*
D18*
%TO.P,U3,24,IO2*%
%TO.N,Net-(J21-Pin_1)*%
X137800000Y-57725000D03*
%TO.P,U3,23,IO15*%
%TO.N,Net-(J28-Pin_1)*%
X136530000Y-57725000D03*
%TO.P,U3,22,SDI/SD1*%
%TO.N,unconnected-(U3-SDI{slash}SD1-Pad22)*%
X135260000Y-57725000D03*
%TO.P,U3,21,SDO/SD0*%
%TO.N,unconnected-(U3-SDO{slash}SD0-Pad21)*%
X133990000Y-57725000D03*
%TO.P,U3,20,SCK/CLK*%
%TO.N,unconnected-(U3-SCK{slash}CLK-Pad20)*%
X132720000Y-57725000D03*
%TO.P,U3,19,SCS/CMD*%
%TO.N,unconnected-(U3-SCS{slash}CMD-Pad19)*%
X131450000Y-57725000D03*
%TO.P,U3,18,SWP/SD3*%
%TO.N,unconnected-(U3-SWP{slash}SD3-Pad18)*%
X130180000Y-57725000D03*
%TO.P,U3,17,SHD/SD2*%
%TO.N,unconnected-(U3-SHD{slash}SD2-Pad17)*%
X128910000Y-57725000D03*
%TO.P,U3,16,IO13*%
%TO.N,Net-(J26-Pin_1)*%
X127640000Y-57725000D03*
%TO.P,U3,15,GND*%
%TO.N,Net-(J12-Pin_1)*%
X126370000Y-57725000D03*
D17*
%TO.P,U3,14,IO12*%
%TO.N,Net-(J25-Pin_1)*%
X123330000Y-56475000D03*
%TO.P,U3,13,IO14*%
%TO.N,Net-(J27-Pin_1)*%
X123330000Y-55205000D03*
%TO.P,U3,12,IO27*%
%TO.N,Net-(J38-Pin_1)*%
X123330000Y-53935000D03*
%TO.P,U3,11,IO26*%
%TO.N,Net-(J37-Pin_1)*%
X123330000Y-52665000D03*
%TO.P,U3,10,IO25*%
%TO.N,Net-(J36-Pin_1)*%
X123330000Y-51395000D03*
%TO.P,U3,9,IO33*%
%TO.N,Net-(J40-Pin_1)*%
X123330000Y-50125000D03*
%TO.P,U3,8,IO32*%
%TO.N,Net-(J39-Pin_1)*%
X123330000Y-48855000D03*
%TO.P,U3,7,IO35*%
%TO.N,Net-(J42-Pin_1)*%
X123330000Y-47585000D03*
%TO.P,U3,6,IO34*%
%TO.N,Net-(J41-Pin_1)*%
X123330000Y-46315000D03*
%TO.P,U3,5,SENSOR_VN*%
%TO.N,unconnected-(U3-SENSOR_VN-Pad5)*%
X123330000Y-45045000D03*
%TO.P,U3,4,SENSOR_VP*%
%TO.N,unconnected-(U3-SENSOR_VP-Pad4)*%
X123330000Y-43775000D03*
%TO.P,U3,3,EN*%
%TO.N,unconnected-(U3-EN-Pad3)*%
X123330000Y-42505000D03*
%TO.P,U3,2,VDD*%
%TO.N,Net-(J13-Pin_1)*%
X123330000Y-41235000D03*
%TO.P,U3,1,GND*%
%TO.N,Net-(J12-Pin_1)*%
X123330000Y-39965000D03*
%TD*%
D19*
%TO.P,J42,1,Pin_1*%
%TO.N,Net-(J42-Pin_1)*%
X96150000Y-53910000D03*
%TD*%
%TO.P,J41,1,Pin_1*%
%TO.N,Net-(J41-Pin_1)*%
X96150000Y-48830000D03*
%TD*%
%TO.P,J40,1,Pin_1*%
%TO.N,Net-(J40-Pin_1)*%
X96150000Y-64070000D03*
%TD*%
%TO.P,J39,1,Pin_1*%
%TO.N,Net-(J39-Pin_1)*%
X96150000Y-58990000D03*
%TD*%
%TO.P,J38,1,Pin_1*%
%TO.N,Net-(J38-Pin_1)*%
X96150000Y-79310000D03*
%TD*%
%TO.P,J37,1,Pin_1*%
%TO.N,Net-(J37-Pin_1)*%
X96150000Y-74230000D03*
%TD*%
%TO.P,J36,1,Pin_1*%
%TO.N,Net-(J36-Pin_1)*%
X96150000Y-69150000D03*
%TD*%
%TO.P,J35,1,Pin_1*%
%TO.N,Net-(J35-Pin_1)*%
X168680000Y-36130000D03*
%TD*%
%TO.P,J34,1,Pin_1*%
%TO.N,Net-(J34-Pin_1)*%
X168680000Y-41210000D03*
%TD*%
%TO.P,J33,1,Pin_1*%
%TO.N,Net-(J33-Pin_1)*%
X168680000Y-56450000D03*
%TD*%
%TO.P,J32,1,Pin_1*%
%TO.N,Net-(J32-Pin_1)*%
X168680000Y-61530000D03*
%TD*%
%TO.P,J31,1,Pin_1*%
%TO.N,Net-(J31-Pin_1)*%
X168680000Y-66610000D03*
%TD*%
%TO.P,J30,1,Pin_1*%
%TO.N,Net-(J30-Pin_1)*%
X168680000Y-76770000D03*
%TD*%
%TO.P,J29,1,Pin_1*%
%TO.N,Net-(J29-Pin_1)*%
X168680000Y-81850000D03*
%TD*%
%TO.P,J28,1,Pin_1*%
%TO.N,Net-(J28-Pin_1)*%
X132080000Y-67994580D03*
%TD*%
%TO.P,J27,1,Pin_1*%
%TO.N,Net-(J27-Pin_1)*%
X96150000Y-84390000D03*
%TD*%
%TO.P,J26,1,Pin_1*%
%TO.N,Net-(J26-Pin_1)*%
X127285000Y-67994580D03*
%TD*%
%TO.P,J25,1,Pin_1*%
%TO.N,Net-(J25-Pin_1)*%
X96150000Y-89470000D03*
%TD*%
%TO.P,J24,1,Pin_1*%
%TO.N,Net-(J24-Pin_1)*%
X168680000Y-71690000D03*
%TD*%
%TO.P,J23,1,Pin_1*%
%TO.N,Net-(J23-Pin_1)*%
X168680000Y-86930000D03*
%TD*%
%TO.P,J22,1,Pin_1*%
%TO.N,Net-(J22-Pin_1)*%
X168680000Y-51370000D03*
%TD*%
%TO.P,J21,1,Pin_1*%
%TO.N,Net-(J21-Pin_1)*%
X137160000Y-67994580D03*
%TD*%
%TO.P,J20,1,Pin_1*%
%TO.N,Net-(J20-Pin_1)*%
X168680000Y-46290000D03*
%TD*%
%TO.P,J19,1,Pin_1*%
%TO.N,Net-(J19-Pin_1)*%
X168802500Y-91910000D03*
%TD*%
%TO.P,J18,1,Pin_1*%
%TO.N,Net-(J18-Pin_1)*%
X166600000Y-124460000D03*
%TD*%
%TO.P,J17,1,Pin_1*%
%TO.N,Net-(J17-Pin_1)*%
X166600000Y-129540000D03*
%TD*%
%TO.P,J16,1,Pin_1*%
%TO.N,Net-(J16-Pin_1)*%
X166600000Y-134620000D03*
%TD*%
%TO.P,J15,1,Pin_1*%
%TO.N,Net-(J15-Pin_1)*%
X166600000Y-139700000D03*
%TD*%
%TO.P,J14,1,Pin_1*%
%TO.N,Net-(J14-Pin_1)*%
X130060000Y-129540000D03*
%TD*%
%TO.P,J13,1,Pin_1*%
%TO.N,Net-(J13-Pin_1)*%
X96150000Y-43750000D03*
%TD*%
%TO.P,J12,1,Pin_1*%
%TO.N,Net-(J12-Pin_1)*%
X96150000Y-38670000D03*
%TD*%
%TO.P,J11,1,Pin_1*%
%TO.N,Net-(J11-Pin_1)*%
X116470000Y-104770000D03*
%TD*%
D20*
%TO.P,J10,2,Pin_2*%
%TO.N,Net-(J10-Pin_2)*%
X143280000Y-95815000D03*
D19*
%TO.P,J10,1,Pin_1*%
%TO.N,Net-(J10-Pin_1)*%
X143280000Y-93275000D03*
%TD*%
%TO.P,J9,1,Pin_1*%
%TO.N,Net-(J9-Pin_1)*%
X143280000Y-89470000D03*
%TD*%
%TO.P,J8,1,Pin_1*%
%TO.N,Net-(J8-Pin_1)*%
X147655000Y-148025000D03*
%TD*%
%TO.P,J7,1,Pin_1*%
%TO.N,Net-(J7-Pin_1)*%
X130060000Y-124460000D03*
%TD*%
%TO.P,J6,1,Pin_1*%
%TO.N,Net-(J6-Pin_1)*%
X166600000Y-119380000D03*
%TD*%
%TO.P,J5,1,Pin_1*%
%TO.N,Net-(J5-Pin_1)*%
X150655000Y-118675000D03*
%TD*%
%TO.P,J4,1,Pin_1*%
%TO.N,Net-(J4-Pin_1)*%
X146005000Y-118675000D03*
%TD*%
%TO.P,J3,1,Pin_1*%
%TO.N,Net-(J3-Pin_1)*%
X130060000Y-134620000D03*
%TD*%
%TO.P,J2,1,Pin_1*%
%TO.N,Net-(J2-Pin_1)*%
X142777500Y-147767500D03*
%TD*%
%TO.P,J1,1,Pin_1*%
%TO.N,Net-(J1-Pin_1)*%
X130060000Y-139700000D03*
%TD*%
D21*
%TO.P,BT1,2,-*%
%TO.N,unconnected-(BT1---Pad2)*%
X88900001Y-133915000D03*
D22*
%TO.P,BT1,1,+*%
%TO.N,unconnected-(BT1-+-Pad1)*%
X88900001Y-113425000D03*
%TD*%
D23*
%TO.N,Net-(J1-Pin_1)*%
X144727500Y-134620000D02*
X145317500Y-134030000D01*
X132080000Y-139700000D02*
X137160000Y-134620000D01*
X130060000Y-139700000D02*
X132080000Y-139700000D01*
X137160000Y-134620000D02*
X144727500Y-134620000D01*
%TO.N,Net-(J3-Pin_1)*%
X132600000Y-132080000D02*
X145317500Y-132080000D01*
X130060000Y-134620000D02*
X132600000Y-132080000D01*
%TO.N,Net-(J14-Pin_1)*%
X131950000Y-131430000D02*
X145317500Y-131430000D01*
X130060000Y-129540000D02*
X131950000Y-131430000D01*
%TO.N,Net-(J7-Pin_1)*%
X136380000Y-130780000D02*
X145317500Y-130780000D01*
X130060000Y-124460000D02*
X136380000Y-130780000D01*
%TO.N,Net-(J2-Pin_1)*%
X147005000Y-143540000D02*
X147005000Y-135067500D01*
X142777500Y-147767500D02*
X147005000Y-143540000D01*
%TO.N,Net-(J8-Pin_1)*%
X150255000Y-145425000D02*
X150255000Y-135067500D01*
X147655000Y-148025000D02*
X150255000Y-145425000D01*
%TO.N,Net-(J15-Pin_1)*%
X160280000Y-133380000D02*
X151292500Y-133380000D01*
X166600000Y-139700000D02*
X160280000Y-133380000D01*
%TO.N,Net-(J16-Pin_1)*%
X164710000Y-132730000D02*
X151292500Y-132730000D01*
X166600000Y-134620000D02*
X164710000Y-132730000D01*
%TO.N,Net-(J17-Pin_1)*%
X164060000Y-132080000D02*
X151030000Y-132080000D01*
X166600000Y-129540000D02*
X164060000Y-132080000D01*
%TO.N,Net-(J18-Pin_1)*%
X159630000Y-131430000D02*
X151292500Y-131430000D01*
X166600000Y-124460000D02*
X159630000Y-131430000D01*
%TO.N,Net-(J6-Pin_1)*%
X155200000Y-130780000D02*
X151292500Y-130780000D01*
X166600000Y-119380000D02*
X155200000Y-130780000D01*
%TO.N,Net-(J5-Pin_1)*%
X147655000Y-129395685D02*
X147655000Y-129092500D01*
X149195685Y-129805000D02*
X148064315Y-129805000D01*
X149430000Y-129570685D02*
X149195685Y-129805000D01*
X149430000Y-119900000D02*
X149430000Y-129570685D01*
X150655000Y-118675000D02*
X149430000Y-119900000D01*
X148064315Y-129805000D02*
X147655000Y-129395685D01*
X149860000Y-132900685D02*
X150989315Y-134030000D01*
X149430000Y-119900000D02*
X149430000Y-129220685D01*
X149860000Y-129650685D02*
X149860000Y-132900685D01*
X149430000Y-129220685D02*
X149860000Y-129650685D01*
X150989315Y-134030000D02*
X151292500Y-134030000D01*
%TO.N,Net-(J4-Pin_1)*%
X148955000Y-121625000D02*
X148955000Y-129092500D01*
X146005000Y-118675000D02*
X148955000Y-121625000D01*
%TO.N,Net-(J10-Pin_2)*%
X141955000Y-94490000D02*
X135875000Y-94490000D01*
X143280000Y-95815000D02*
X141955000Y-94490000D01*
%TO.N,Net-(J10-Pin_1)*%
X143280000Y-93275000D02*
X135990000Y-93275000D01*
X135990000Y-93275000D02*
X135875000Y-93390000D01*
%TO.N,Net-(J9-Pin_1)*%
X143280000Y-89470000D02*
X141560000Y-91190000D01*
X141560000Y-91190000D02*
X135875000Y-91190000D01*
%TO.N,Net-(J11-Pin_1)*%
X126457538Y-98965000D02*
X135332538Y-90090000D01*
X135332538Y-90090000D02*
X135875000Y-90090000D01*
X122275000Y-98965000D02*
X126457538Y-98965000D01*
X116470000Y-104770000D02*
X122275000Y-98965000D01*
X135195000Y-104770000D02*
X135875000Y-104090000D01*
X116470000Y-104770000D02*
X135195000Y-104770000D01*
X119350000Y-101890000D02*
X123875000Y-101890000D01*
X116470000Y-104770000D02*
X119350000Y-101890000D01*
X123195000Y-104770000D02*
X123875000Y-104090000D01*
X116470000Y-104770000D02*
X123195000Y-104770000D01*
%TO.N,Net-(J19-Pin_1)*%
X140830000Y-57010000D02*
X140830000Y-56475000D01*
X152400000Y-75507500D02*
X152400000Y-68580000D01*
X152400000Y-68580000D02*
X140830000Y-57010000D01*
X168802500Y-91910000D02*
X152400000Y-75507500D01*
%TO.N,Net-(J23-Pin_1)*%
X141565000Y-55205000D02*
X140830000Y-55205000D01*
X154940000Y-68580000D02*
X141565000Y-55205000D01*
X154940000Y-73190000D02*
X154940000Y-68580000D01*
X168680000Y-86930000D02*
X154940000Y-73190000D01*
%TO.N,Net-(J29-Pin_1)*%
X141865000Y-53935000D02*
X140830000Y-53935000D01*
X168680000Y-80750000D02*
X141865000Y-53935000D01*
X168680000Y-81850000D02*
X168680000Y-80750000D01*
%TO.N,Net-(J30-Pin_1)*%
X144575000Y-52665000D02*
X140830000Y-52665000D01*
X168680000Y-76770000D02*
X144575000Y-52665000D01*
%TO.N,Net-(J24-Pin_1)*%
X148385000Y-51395000D02*
X140830000Y-51395000D01*
X168680000Y-71690000D02*
X148385000Y-51395000D01*
%TO.N,Net-(J31-Pin_1)*%
X152195000Y-50125000D02*
X140830000Y-50125000D01*
X168680000Y-66610000D02*
X152195000Y-50125000D01*
%TO.N,Net-(J32-Pin_1)*%
X156005000Y-48855000D02*
X140830000Y-48855000D01*
X168680000Y-61530000D02*
X156005000Y-48855000D01*
%TO.N,Net-(J33-Pin_1)*%
X158545000Y-46315000D02*
X140830000Y-46315000D01*
X168680000Y-56450000D02*
X158545000Y-46315000D01*
%TO.N,Net-(J22-Pin_1)*%
X162355000Y-45045000D02*
X140830000Y-45045000D01*
X168680000Y-51370000D02*
X162355000Y-45045000D01*
%TO.N,Net-(J20-Pin_1)*%
X166165000Y-43775000D02*
X140830000Y-43775000D01*
X168680000Y-46290000D02*
X166165000Y-43775000D01*
%TO.N,Net-(J34-Pin_1)*%
X167385000Y-42505000D02*
X140830000Y-42505000D01*
X168680000Y-41210000D02*
X167385000Y-42505000D01*
%TO.N,Net-(J35-Pin_1)*%
X147165000Y-41235000D02*
X140830000Y-41235000D01*
X166270000Y-38540000D02*
X149860000Y-38540000D01*
X168680000Y-36130000D02*
X166270000Y-38540000D01*
X149860000Y-38540000D02*
X147165000Y-41235000D01*
%TO.N,Net-(J21-Pin_1)*%
X137800000Y-67354580D02*
X137800000Y-57725000D01*
X137160000Y-67994580D02*
X137800000Y-67354580D01*
%TO.N,Net-(J28-Pin_1)*%
X136530000Y-63544580D02*
X136530000Y-57725000D01*
X132080000Y-67994580D02*
X136530000Y-63544580D01*
%TO.N,Net-(J26-Pin_1)*%
X127285000Y-58080000D02*
X127640000Y-57725000D01*
X127285000Y-67994580D02*
X127285000Y-58080000D01*
%TO.N,Net-(J25-Pin_1)*%
X121961396Y-56475000D02*
X123330000Y-56475000D01*
X116840000Y-61596396D02*
X121961396Y-56475000D01*
X116840000Y-66040000D02*
X116840000Y-61596396D01*
X96150000Y-89470000D02*
X96150000Y-86730000D01*
X96150000Y-86730000D02*
X116840000Y-66040000D01*
%TO.N,Net-(J27-Pin_1)*%
X122595000Y-55205000D02*
X123330000Y-55205000D01*
X96150000Y-81650000D02*
X122595000Y-55205000D01*
X96150000Y-84390000D02*
X96150000Y-81650000D01*
%TO.N,Net-(J38-Pin_1)*%
X121525000Y-53935000D02*
X123330000Y-53935000D01*
X96150000Y-79310000D02*
X121525000Y-53935000D01*
%TO.N,Net-(J37-Pin_1)*%
X96150000Y-74230000D02*
X117715000Y-52665000D01*
X117715000Y-52665000D02*
X123330000Y-52665000D01*
%TO.N,Net-(J36-Pin_1)*%
X113905000Y-51395000D02*
X123330000Y-51395000D01*
X96150000Y-69150000D02*
X113905000Y-51395000D01*
%TO.N,Net-(J40-Pin_1)*%
X110095000Y-50125000D02*
X123330000Y-50125000D01*
X96150000Y-64070000D02*
X110095000Y-50125000D01*
%TO.N,Net-(J39-Pin_1)*%
X96150000Y-58990000D02*
X106285000Y-48855000D01*
X106285000Y-48855000D02*
X123330000Y-48855000D01*
%TO.N,Net-(J42-Pin_1)*%
X96150000Y-53910000D02*
X102475000Y-47585000D01*
X102475000Y-47585000D02*
X123330000Y-47585000D01*
%TO.N,Net-(J41-Pin_1)*%
X98665000Y-46315000D02*
X123330000Y-46315000D01*
X96150000Y-48830000D02*
X98665000Y-46315000D01*
%TO.N,Net-(J13-Pin_1)*%
X98665000Y-41235000D02*
X123330000Y-41235000D01*
X96150000Y-43750000D02*
X98665000Y-41235000D01*
%TO.N,Net-(J12-Pin_1)*%
X122035000Y-38670000D02*
X123330000Y-39965000D01*
X96150000Y-38670000D02*
X122035000Y-38670000D01*
%TD*%
M02*
