%TF.GenerationSoftware,KiCad,Pcbnew,7.0.5*%
%TF.CreationDate,2023-06-26T00:24:40-05:00*%
%TF.ProjectId,PCB GPS,50434220-4750-4532-9e6b-696361645f70,rev?*%
%TF.SameCoordinates,Original*%
%TF.FileFunction,Copper,L2,Bot*%
%TF.FilePolarity,Positive*%
%FSLAX46Y46*%
G04 Gerber Fmt 4.6, Leading zero omitted, Abs format (unit mm)*
G04 Created by KiCad (PCBNEW 7.0.5) date 2023-06-26 00:24:40*
%MOMM*%
%LPD*%
G01*
G04 APERTURE LIST*
%TA.AperFunction,HeatsinkPad*%
%ADD10C,0.600000*%
%TD*%
%TA.AperFunction,ComponentPad*%
%ADD11R,1.700000X1.700000*%
%TD*%
%TA.AperFunction,ComponentPad*%
%ADD12O,1.700000X1.700000*%
%TD*%
%TA.AperFunction,ComponentPad*%
%ADD13C,3.000000*%
%TD*%
%TA.AperFunction,ComponentPad*%
%ADD14R,3.000000X3.000000*%
%TD*%
G04 APERTURE END LIST*
D10*
%TO.P,U3,39,GND*%
%TO.N,Net-(J12-Pin_1)*%
X131400000Y-46542500D03*
X132925000Y-48067500D03*
X130637500Y-47305000D03*
X132162500Y-47305000D03*
X131400000Y-48067500D03*
X132925000Y-46542500D03*
X130637500Y-45780000D03*
X130637500Y-48830000D03*
X129875000Y-48067500D03*
X132162500Y-45780000D03*
X132162500Y-48830000D03*
X129875000Y-46542500D03*
%TD*%
D11*
%TO.P,J42,1,Pin_1*%
%TO.N,Net-(J42-Pin_1)*%
X96150000Y-53910000D03*
%TD*%
%TO.P,J41,1,Pin_1*%
%TO.N,Net-(J41-Pin_1)*%
X96150000Y-48830000D03*
%TD*%
%TO.P,J40,1,Pin_1*%
%TO.N,Net-(J40-Pin_1)*%
X96150000Y-64070000D03*
%TD*%
%TO.P,J39,1,Pin_1*%
%TO.N,Net-(J39-Pin_1)*%
X96150000Y-58990000D03*
%TD*%
%TO.P,J38,1,Pin_1*%
%TO.N,Net-(J38-Pin_1)*%
X96150000Y-79310000D03*
%TD*%
%TO.P,J37,1,Pin_1*%
%TO.N,Net-(J37-Pin_1)*%
X96150000Y-74230000D03*
%TD*%
%TO.P,J36,1,Pin_1*%
%TO.N,Net-(J36-Pin_1)*%
X96150000Y-69150000D03*
%TD*%
%TO.P,J35,1,Pin_1*%
%TO.N,Net-(J35-Pin_1)*%
X168680000Y-36130000D03*
%TD*%
%TO.P,J34,1,Pin_1*%
%TO.N,Net-(J34-Pin_1)*%
X168680000Y-41210000D03*
%TD*%
%TO.P,J33,1,Pin_1*%
%TO.N,Net-(J33-Pin_1)*%
X168680000Y-56450000D03*
%TD*%
%TO.P,J32,1,Pin_1*%
%TO.N,Net-(J32-Pin_1)*%
X168680000Y-61530000D03*
%TD*%
%TO.P,J31,1,Pin_1*%
%TO.N,Net-(J31-Pin_1)*%
X168680000Y-66610000D03*
%TD*%
%TO.P,J30,1,Pin_1*%
%TO.N,Net-(J30-Pin_1)*%
X168680000Y-76770000D03*
%TD*%
%TO.P,J29,1,Pin_1*%
%TO.N,Net-(J29-Pin_1)*%
X168680000Y-81850000D03*
%TD*%
%TO.P,J28,1,Pin_1*%
%TO.N,Net-(J28-Pin_1)*%
X132080000Y-67994580D03*
%TD*%
%TO.P,J27,1,Pin_1*%
%TO.N,Net-(J27-Pin_1)*%
X96150000Y-84390000D03*
%TD*%
%TO.P,J26,1,Pin_1*%
%TO.N,Net-(J26-Pin_1)*%
X127285000Y-67994580D03*
%TD*%
%TO.P,J25,1,Pin_1*%
%TO.N,Net-(J25-Pin_1)*%
X96150000Y-89470000D03*
%TD*%
%TO.P,J24,1,Pin_1*%
%TO.N,Net-(J24-Pin_1)*%
X168680000Y-71690000D03*
%TD*%
%TO.P,J23,1,Pin_1*%
%TO.N,Net-(J23-Pin_1)*%
X168680000Y-86930000D03*
%TD*%
%TO.P,J22,1,Pin_1*%
%TO.N,Net-(J22-Pin_1)*%
X168680000Y-51370000D03*
%TD*%
%TO.P,J21,1,Pin_1*%
%TO.N,Net-(J21-Pin_1)*%
X137160000Y-67994580D03*
%TD*%
%TO.P,J20,1,Pin_1*%
%TO.N,Net-(J20-Pin_1)*%
X168680000Y-46290000D03*
%TD*%
%TO.P,J19,1,Pin_1*%
%TO.N,Net-(J19-Pin_1)*%
X168802500Y-91910000D03*
%TD*%
%TO.P,J18,1,Pin_1*%
%TO.N,Net-(J18-Pin_1)*%
X166600000Y-124460000D03*
%TD*%
%TO.P,J17,1,Pin_1*%
%TO.N,Net-(J17-Pin_1)*%
X166600000Y-129540000D03*
%TD*%
%TO.P,J16,1,Pin_1*%
%TO.N,Net-(J16-Pin_1)*%
X166600000Y-134620000D03*
%TD*%
%TO.P,J15,1,Pin_1*%
%TO.N,Net-(J15-Pin_1)*%
X166600000Y-139700000D03*
%TD*%
%TO.P,J14,1,Pin_1*%
%TO.N,Net-(J14-Pin_1)*%
X130060000Y-129540000D03*
%TD*%
%TO.P,J13,1,Pin_1*%
%TO.N,Net-(J13-Pin_1)*%
X96150000Y-43750000D03*
%TD*%
%TO.P,J12,1,Pin_1*%
%TO.N,Net-(J12-Pin_1)*%
X96150000Y-38670000D03*
%TD*%
%TO.P,J11,1,Pin_1*%
%TO.N,Net-(J11-Pin_1)*%
X116470000Y-104770000D03*
%TD*%
D12*
%TO.P,J10,2,Pin_2*%
%TO.N,Net-(J10-Pin_2)*%
X143280000Y-95815000D03*
D11*
%TO.P,J10,1,Pin_1*%
%TO.N,Net-(J10-Pin_1)*%
X143280000Y-93275000D03*
%TD*%
%TO.P,J9,1,Pin_1*%
%TO.N,Net-(J9-Pin_1)*%
X143280000Y-89470000D03*
%TD*%
%TO.P,J8,1,Pin_1*%
%TO.N,Net-(J8-Pin_1)*%
X147655000Y-148025000D03*
%TD*%
%TO.P,J7,1,Pin_1*%
%TO.N,Net-(J7-Pin_1)*%
X130060000Y-124460000D03*
%TD*%
%TO.P,J6,1,Pin_1*%
%TO.N,Net-(J6-Pin_1)*%
X166600000Y-119380000D03*
%TD*%
%TO.P,J5,1,Pin_1*%
%TO.N,Net-(J5-Pin_1)*%
X150655000Y-118675000D03*
%TD*%
%TO.P,J4,1,Pin_1*%
%TO.N,Net-(J4-Pin_1)*%
X146005000Y-118675000D03*
%TD*%
%TO.P,J3,1,Pin_1*%
%TO.N,Net-(J3-Pin_1)*%
X130060000Y-134620000D03*
%TD*%
%TO.P,J2,1,Pin_1*%
%TO.N,Net-(J2-Pin_1)*%
X142777500Y-147767500D03*
%TD*%
%TO.P,J1,1,Pin_1*%
%TO.N,Net-(J1-Pin_1)*%
X130060000Y-139700000D03*
%TD*%
D13*
%TO.P,BT1,2,-*%
%TO.N,unconnected-(BT1---Pad2)*%
X88900001Y-133915000D03*
D14*
%TO.P,BT1,1,+*%
%TO.N,unconnected-(BT1-+-Pad1)*%
X88900001Y-113425000D03*
%TD*%
M02*
