%TF.GenerationSoftware,KiCad,Pcbnew,7.0.5*%
%TF.CreationDate,2023-06-26T00:24:40-05:00*%
%TF.ProjectId,PCB GPS,50434220-4750-4532-9e6b-696361645f70,rev?*%
%TF.SameCoordinates,Original*%
%TF.FileFunction,Paste,Top*%
%TF.FilePolarity,Positive*%
%FSLAX46Y46*%
G04 Gerber Fmt 4.6, Leading zero omitted, Abs format (unit mm)*
G04 Created by KiCad (PCBNEW 7.0.5) date 2023-06-26 00:24:40*
%MOMM*%
%LPD*%
G01*
G04 APERTURE LIST*
G04 Aperture macros list*
%AMRoundRect*
0 Rectangle with rounded corners*
0 $1 Rounding radius*
0 $2 $3 $4 $5 $6 $7 $8 $9 X,Y pos of 4 corners*
0 Add a 4 corners polygon primitive as box body*
4,1,4,$2,$3,$4,$5,$6,$7,$8,$9,$2,$3,0*
0 Add four circle primitives for the rounded corners*
1,1,$1+$1,$2,$3*
1,1,$1+$1,$4,$5*
1,1,$1+$1,$6,$7*
1,1,$1+$1,$8,$9*
0 Add four rect primitives between the rounded corners*
20,1,$1+$1,$2,$3,$4,$5,0*
20,1,$1+$1,$4,$5,$6,$7,0*
20,1,$1+$1,$6,$7,$8,$9,0*
20,1,$1+$1,$8,$9,$2,$3,0*%
G04 Aperture macros list end*
%ADD10RoundRect,0.075000X-0.075000X-0.312500X0.075000X-0.312500X0.075000X0.312500X-0.075000X0.312500X0*%
%ADD11RoundRect,0.075000X-0.312500X-0.075000X0.312500X-0.075000X0.312500X0.075000X-0.312500X0.075000X0*%
%ADD12RoundRect,0.249999X-0.395001X-0.395001X0.395001X-0.395001X0.395001X0.395001X-0.395001X0.395001X0*%
%ADD13RoundRect,0.200000X-0.700000X-0.200000X0.700000X-0.200000X0.700000X0.200000X-0.700000X0.200000X0*%
%ADD14R,1.050000X1.050000*%
%ADD15R,1.500000X0.900000*%
%ADD16R,0.900000X1.500000*%
G04 APERTURE END LIST*
D10*
%TO.C,U5*%
X146355000Y-129092500D03*
X147005000Y-129092500D03*
X147655000Y-129092500D03*
X148305000Y-129092500D03*
X148955000Y-129092500D03*
X149605000Y-129092500D03*
X150255000Y-129092500D03*
D11*
X151292500Y-130130000D03*
X151292500Y-130780000D03*
X151292500Y-131430000D03*
X151292500Y-132080000D03*
X151292500Y-132730000D03*
X151292500Y-133380000D03*
X151292500Y-134030000D03*
D10*
X150255000Y-135067500D03*
X149605000Y-135067500D03*
X148955000Y-135067500D03*
X148305000Y-135067500D03*
X147655000Y-135067500D03*
X147005000Y-135067500D03*
X146355000Y-135067500D03*
D11*
X145317500Y-134030000D03*
X145317500Y-133380000D03*
X145317500Y-132730000D03*
X145317500Y-132080000D03*
X145317500Y-131430000D03*
X145317500Y-130780000D03*
X145317500Y-130130000D03*
D12*
X149905000Y-130480000D03*
X148305000Y-133680000D03*
X146705000Y-133680000D03*
X149905000Y-132080000D03*
X149905000Y-133680000D03*
X148305000Y-130480000D03*
X146705000Y-132080000D03*
X148305000Y-132080000D03*
X146705000Y-130480000D03*
%TD*%
D13*
%TO.C,U4*%
X135875000Y-90090000D03*
X135875000Y-91190000D03*
X135875000Y-92290000D03*
X135875000Y-93390000D03*
X135875000Y-94490000D03*
X135875000Y-95590000D03*
X135875000Y-96690000D03*
X135875000Y-99690000D03*
X135875000Y-100790000D03*
X135875000Y-101890000D03*
X135875000Y-102990000D03*
X135875000Y-104090000D03*
X123875000Y-104090000D03*
X123875000Y-102990000D03*
X123875000Y-101890000D03*
X123875000Y-100790000D03*
X123875000Y-99690000D03*
X123875000Y-96690000D03*
X123875000Y-95590000D03*
X123875000Y-94490000D03*
X123875000Y-93390000D03*
X123875000Y-92290000D03*
X123875000Y-91190000D03*
X123875000Y-90090000D03*
%TD*%
D14*
%TO.C,U3*%
X131400000Y-47305000D03*
X131400000Y-45780000D03*
X132925000Y-45780000D03*
X129875000Y-48830000D03*
X129875000Y-47305000D03*
X132925000Y-47305000D03*
X131400000Y-48830000D03*
X132925000Y-48830000D03*
X129875000Y-45780000D03*
D15*
X140830000Y-39965000D03*
X140830000Y-41235000D03*
X140830000Y-42505000D03*
X140830000Y-43775000D03*
X140830000Y-45045000D03*
X140830000Y-46315000D03*
X140830000Y-47585000D03*
X140830000Y-48855000D03*
X140830000Y-50125000D03*
X140830000Y-51395000D03*
X140830000Y-52665000D03*
X140830000Y-53935000D03*
X140830000Y-55205000D03*
X140830000Y-56475000D03*
D16*
X137800000Y-57725000D03*
X136530000Y-57725000D03*
X135260000Y-57725000D03*
X133990000Y-57725000D03*
X132720000Y-57725000D03*
X131450000Y-57725000D03*
X130180000Y-57725000D03*
X128910000Y-57725000D03*
X127640000Y-57725000D03*
X126370000Y-57725000D03*
D15*
X123330000Y-56475000D03*
X123330000Y-55205000D03*
X123330000Y-53935000D03*
X123330000Y-52665000D03*
X123330000Y-51395000D03*
X123330000Y-50125000D03*
X123330000Y-48855000D03*
X123330000Y-47585000D03*
X123330000Y-46315000D03*
X123330000Y-45045000D03*
X123330000Y-43775000D03*
X123330000Y-42505000D03*
X123330000Y-41235000D03*
X123330000Y-39965000D03*
%TD*%
M02*
