%TF.GenerationSoftware,KiCad,Pcbnew,7.0.5*%
%TF.CreationDate,2023-06-26T00:24:41-05:00*%
%TF.ProjectId,PCB GPS,50434220-4750-4532-9e6b-696361645f70,rev?*%
%TF.SameCoordinates,Original*%
%TF.FileFunction,Legend,Top*%
%TF.FilePolarity,Positive*%
%FSLAX46Y46*%
G04 Gerber Fmt 4.6, Leading zero omitted, Abs format (unit mm)*
G04 Created by KiCad (PCBNEW 7.0.5) date 2023-06-26 00:24:41*
%MOMM*%
%LPD*%
G01*
G04 APERTURE LIST*
%ADD10C,0.150000*%
%ADD11C,0.120000*%
G04 APERTURE END LIST*
D10*
%TO.C,U5*%
X147543095Y-127214819D02*
X147543095Y-128024342D01*
X147543095Y-128024342D02*
X147590714Y-128119580D01*
X147590714Y-128119580D02*
X147638333Y-128167200D01*
X147638333Y-128167200D02*
X147733571Y-128214819D01*
X147733571Y-128214819D02*
X147924047Y-128214819D01*
X147924047Y-128214819D02*
X148019285Y-128167200D01*
X148019285Y-128167200D02*
X148066904Y-128119580D01*
X148066904Y-128119580D02*
X148114523Y-128024342D01*
X148114523Y-128024342D02*
X148114523Y-127214819D01*
X149066904Y-127214819D02*
X148590714Y-127214819D01*
X148590714Y-127214819D02*
X148543095Y-127691009D01*
X148543095Y-127691009D02*
X148590714Y-127643390D01*
X148590714Y-127643390D02*
X148685952Y-127595771D01*
X148685952Y-127595771D02*
X148924047Y-127595771D01*
X148924047Y-127595771D02*
X149019285Y-127643390D01*
X149019285Y-127643390D02*
X149066904Y-127691009D01*
X149066904Y-127691009D02*
X149114523Y-127786247D01*
X149114523Y-127786247D02*
X149114523Y-128024342D01*
X149114523Y-128024342D02*
X149066904Y-128119580D01*
X149066904Y-128119580D02*
X149019285Y-128167200D01*
X149019285Y-128167200D02*
X148924047Y-128214819D01*
X148924047Y-128214819D02*
X148685952Y-128214819D01*
X148685952Y-128214819D02*
X148590714Y-128167200D01*
X148590714Y-128167200D02*
X148543095Y-128119580D01*
%TO.C,U4*%
X129123095Y-85164819D02*
X129123095Y-85974342D01*
X129123095Y-85974342D02*
X129170714Y-86069580D01*
X129170714Y-86069580D02*
X129218333Y-86117200D01*
X129218333Y-86117200D02*
X129313571Y-86164819D01*
X129313571Y-86164819D02*
X129504047Y-86164819D01*
X129504047Y-86164819D02*
X129599285Y-86117200D01*
X129599285Y-86117200D02*
X129646904Y-86069580D01*
X129646904Y-86069580D02*
X129694523Y-85974342D01*
X129694523Y-85974342D02*
X129694523Y-85164819D01*
X130599285Y-85498152D02*
X130599285Y-86164819D01*
X130361190Y-85117200D02*
X130123095Y-85831485D01*
X130123095Y-85831485D02*
X130742142Y-85831485D01*
%TO.C,U3*%
X120924819Y-57406904D02*
X121734342Y-57406904D01*
X121734342Y-57406904D02*
X121829580Y-57359285D01*
X121829580Y-57359285D02*
X121877200Y-57311666D01*
X121877200Y-57311666D02*
X121924819Y-57216428D01*
X121924819Y-57216428D02*
X121924819Y-57025952D01*
X121924819Y-57025952D02*
X121877200Y-56930714D01*
X121877200Y-56930714D02*
X121829580Y-56883095D01*
X121829580Y-56883095D02*
X121734342Y-56835476D01*
X121734342Y-56835476D02*
X120924819Y-56835476D01*
X120924819Y-56454523D02*
X120924819Y-55835476D01*
X120924819Y-55835476D02*
X121305771Y-56168809D01*
X121305771Y-56168809D02*
X121305771Y-56025952D01*
X121305771Y-56025952D02*
X121353390Y-55930714D01*
X121353390Y-55930714D02*
X121401009Y-55883095D01*
X121401009Y-55883095D02*
X121496247Y-55835476D01*
X121496247Y-55835476D02*
X121734342Y-55835476D01*
X121734342Y-55835476D02*
X121829580Y-55883095D01*
X121829580Y-55883095D02*
X121877200Y-55930714D01*
X121877200Y-55930714D02*
X121924819Y-56025952D01*
X121924819Y-56025952D02*
X121924819Y-56311666D01*
X121924819Y-56311666D02*
X121877200Y-56406904D01*
X121877200Y-56406904D02*
X121829580Y-56454523D01*
%TO.C,J42*%
X90955476Y-55634819D02*
X90955476Y-56349104D01*
X90955476Y-56349104D02*
X90907857Y-56491961D01*
X90907857Y-56491961D02*
X90812619Y-56587200D01*
X90812619Y-56587200D02*
X90669762Y-56634819D01*
X90669762Y-56634819D02*
X90574524Y-56634819D01*
X91860238Y-55968152D02*
X91860238Y-56634819D01*
X91622143Y-55587200D02*
X91384048Y-56301485D01*
X91384048Y-56301485D02*
X92003095Y-56301485D01*
X92336429Y-55730057D02*
X92384048Y-55682438D01*
X92384048Y-55682438D02*
X92479286Y-55634819D01*
X92479286Y-55634819D02*
X92717381Y-55634819D01*
X92717381Y-55634819D02*
X92812619Y-55682438D01*
X92812619Y-55682438D02*
X92860238Y-55730057D01*
X92860238Y-55730057D02*
X92907857Y-55825295D01*
X92907857Y-55825295D02*
X92907857Y-55920533D01*
X92907857Y-55920533D02*
X92860238Y-56063390D01*
X92860238Y-56063390D02*
X92288810Y-56634819D01*
X92288810Y-56634819D02*
X92907857Y-56634819D01*
%TO.C,J41*%
X101125476Y-48284819D02*
X101125476Y-48999104D01*
X101125476Y-48999104D02*
X101077857Y-49141961D01*
X101077857Y-49141961D02*
X100982619Y-49237200D01*
X100982619Y-49237200D02*
X100839762Y-49284819D01*
X100839762Y-49284819D02*
X100744524Y-49284819D01*
X102030238Y-48618152D02*
X102030238Y-49284819D01*
X101792143Y-48237200D02*
X101554048Y-48951485D01*
X101554048Y-48951485D02*
X102173095Y-48951485D01*
X103077857Y-49284819D02*
X102506429Y-49284819D01*
X102792143Y-49284819D02*
X102792143Y-48284819D01*
X102792143Y-48284819D02*
X102696905Y-48427676D01*
X102696905Y-48427676D02*
X102601667Y-48522914D01*
X102601667Y-48522914D02*
X102506429Y-48570533D01*
%TO.C,J40*%
X90955476Y-65794819D02*
X90955476Y-66509104D01*
X90955476Y-66509104D02*
X90907857Y-66651961D01*
X90907857Y-66651961D02*
X90812619Y-66747200D01*
X90812619Y-66747200D02*
X90669762Y-66794819D01*
X90669762Y-66794819D02*
X90574524Y-66794819D01*
X91860238Y-66128152D02*
X91860238Y-66794819D01*
X91622143Y-65747200D02*
X91384048Y-66461485D01*
X91384048Y-66461485D02*
X92003095Y-66461485D01*
X92574524Y-65794819D02*
X92669762Y-65794819D01*
X92669762Y-65794819D02*
X92765000Y-65842438D01*
X92765000Y-65842438D02*
X92812619Y-65890057D01*
X92812619Y-65890057D02*
X92860238Y-65985295D01*
X92860238Y-65985295D02*
X92907857Y-66175771D01*
X92907857Y-66175771D02*
X92907857Y-66413866D01*
X92907857Y-66413866D02*
X92860238Y-66604342D01*
X92860238Y-66604342D02*
X92812619Y-66699580D01*
X92812619Y-66699580D02*
X92765000Y-66747200D01*
X92765000Y-66747200D02*
X92669762Y-66794819D01*
X92669762Y-66794819D02*
X92574524Y-66794819D01*
X92574524Y-66794819D02*
X92479286Y-66747200D01*
X92479286Y-66747200D02*
X92431667Y-66699580D01*
X92431667Y-66699580D02*
X92384048Y-66604342D01*
X92384048Y-66604342D02*
X92336429Y-66413866D01*
X92336429Y-66413866D02*
X92336429Y-66175771D01*
X92336429Y-66175771D02*
X92384048Y-65985295D01*
X92384048Y-65985295D02*
X92431667Y-65890057D01*
X92431667Y-65890057D02*
X92479286Y-65842438D01*
X92479286Y-65842438D02*
X92574524Y-65794819D01*
%TO.C,J39*%
X90955476Y-60714819D02*
X90955476Y-61429104D01*
X90955476Y-61429104D02*
X90907857Y-61571961D01*
X90907857Y-61571961D02*
X90812619Y-61667200D01*
X90812619Y-61667200D02*
X90669762Y-61714819D01*
X90669762Y-61714819D02*
X90574524Y-61714819D01*
X91336429Y-60714819D02*
X91955476Y-60714819D01*
X91955476Y-60714819D02*
X91622143Y-61095771D01*
X91622143Y-61095771D02*
X91765000Y-61095771D01*
X91765000Y-61095771D02*
X91860238Y-61143390D01*
X91860238Y-61143390D02*
X91907857Y-61191009D01*
X91907857Y-61191009D02*
X91955476Y-61286247D01*
X91955476Y-61286247D02*
X91955476Y-61524342D01*
X91955476Y-61524342D02*
X91907857Y-61619580D01*
X91907857Y-61619580D02*
X91860238Y-61667200D01*
X91860238Y-61667200D02*
X91765000Y-61714819D01*
X91765000Y-61714819D02*
X91479286Y-61714819D01*
X91479286Y-61714819D02*
X91384048Y-61667200D01*
X91384048Y-61667200D02*
X91336429Y-61619580D01*
X92431667Y-61714819D02*
X92622143Y-61714819D01*
X92622143Y-61714819D02*
X92717381Y-61667200D01*
X92717381Y-61667200D02*
X92765000Y-61619580D01*
X92765000Y-61619580D02*
X92860238Y-61476723D01*
X92860238Y-61476723D02*
X92907857Y-61286247D01*
X92907857Y-61286247D02*
X92907857Y-60905295D01*
X92907857Y-60905295D02*
X92860238Y-60810057D01*
X92860238Y-60810057D02*
X92812619Y-60762438D01*
X92812619Y-60762438D02*
X92717381Y-60714819D01*
X92717381Y-60714819D02*
X92526905Y-60714819D01*
X92526905Y-60714819D02*
X92431667Y-60762438D01*
X92431667Y-60762438D02*
X92384048Y-60810057D01*
X92384048Y-60810057D02*
X92336429Y-60905295D01*
X92336429Y-60905295D02*
X92336429Y-61143390D01*
X92336429Y-61143390D02*
X92384048Y-61238628D01*
X92384048Y-61238628D02*
X92431667Y-61286247D01*
X92431667Y-61286247D02*
X92526905Y-61333866D01*
X92526905Y-61333866D02*
X92717381Y-61333866D01*
X92717381Y-61333866D02*
X92812619Y-61286247D01*
X92812619Y-61286247D02*
X92860238Y-61238628D01*
X92860238Y-61238628D02*
X92907857Y-61143390D01*
%TO.C,J38*%
X90955476Y-81034819D02*
X90955476Y-81749104D01*
X90955476Y-81749104D02*
X90907857Y-81891961D01*
X90907857Y-81891961D02*
X90812619Y-81987200D01*
X90812619Y-81987200D02*
X90669762Y-82034819D01*
X90669762Y-82034819D02*
X90574524Y-82034819D01*
X91336429Y-81034819D02*
X91955476Y-81034819D01*
X91955476Y-81034819D02*
X91622143Y-81415771D01*
X91622143Y-81415771D02*
X91765000Y-81415771D01*
X91765000Y-81415771D02*
X91860238Y-81463390D01*
X91860238Y-81463390D02*
X91907857Y-81511009D01*
X91907857Y-81511009D02*
X91955476Y-81606247D01*
X91955476Y-81606247D02*
X91955476Y-81844342D01*
X91955476Y-81844342D02*
X91907857Y-81939580D01*
X91907857Y-81939580D02*
X91860238Y-81987200D01*
X91860238Y-81987200D02*
X91765000Y-82034819D01*
X91765000Y-82034819D02*
X91479286Y-82034819D01*
X91479286Y-82034819D02*
X91384048Y-81987200D01*
X91384048Y-81987200D02*
X91336429Y-81939580D01*
X92526905Y-81463390D02*
X92431667Y-81415771D01*
X92431667Y-81415771D02*
X92384048Y-81368152D01*
X92384048Y-81368152D02*
X92336429Y-81272914D01*
X92336429Y-81272914D02*
X92336429Y-81225295D01*
X92336429Y-81225295D02*
X92384048Y-81130057D01*
X92384048Y-81130057D02*
X92431667Y-81082438D01*
X92431667Y-81082438D02*
X92526905Y-81034819D01*
X92526905Y-81034819D02*
X92717381Y-81034819D01*
X92717381Y-81034819D02*
X92812619Y-81082438D01*
X92812619Y-81082438D02*
X92860238Y-81130057D01*
X92860238Y-81130057D02*
X92907857Y-81225295D01*
X92907857Y-81225295D02*
X92907857Y-81272914D01*
X92907857Y-81272914D02*
X92860238Y-81368152D01*
X92860238Y-81368152D02*
X92812619Y-81415771D01*
X92812619Y-81415771D02*
X92717381Y-81463390D01*
X92717381Y-81463390D02*
X92526905Y-81463390D01*
X92526905Y-81463390D02*
X92431667Y-81511009D01*
X92431667Y-81511009D02*
X92384048Y-81558628D01*
X92384048Y-81558628D02*
X92336429Y-81653866D01*
X92336429Y-81653866D02*
X92336429Y-81844342D01*
X92336429Y-81844342D02*
X92384048Y-81939580D01*
X92384048Y-81939580D02*
X92431667Y-81987200D01*
X92431667Y-81987200D02*
X92526905Y-82034819D01*
X92526905Y-82034819D02*
X92717381Y-82034819D01*
X92717381Y-82034819D02*
X92812619Y-81987200D01*
X92812619Y-81987200D02*
X92860238Y-81939580D01*
X92860238Y-81939580D02*
X92907857Y-81844342D01*
X92907857Y-81844342D02*
X92907857Y-81653866D01*
X92907857Y-81653866D02*
X92860238Y-81558628D01*
X92860238Y-81558628D02*
X92812619Y-81511009D01*
X92812619Y-81511009D02*
X92717381Y-81463390D01*
%TO.C,J37*%
X90955476Y-75954819D02*
X90955476Y-76669104D01*
X90955476Y-76669104D02*
X90907857Y-76811961D01*
X90907857Y-76811961D02*
X90812619Y-76907200D01*
X90812619Y-76907200D02*
X90669762Y-76954819D01*
X90669762Y-76954819D02*
X90574524Y-76954819D01*
X91336429Y-75954819D02*
X91955476Y-75954819D01*
X91955476Y-75954819D02*
X91622143Y-76335771D01*
X91622143Y-76335771D02*
X91765000Y-76335771D01*
X91765000Y-76335771D02*
X91860238Y-76383390D01*
X91860238Y-76383390D02*
X91907857Y-76431009D01*
X91907857Y-76431009D02*
X91955476Y-76526247D01*
X91955476Y-76526247D02*
X91955476Y-76764342D01*
X91955476Y-76764342D02*
X91907857Y-76859580D01*
X91907857Y-76859580D02*
X91860238Y-76907200D01*
X91860238Y-76907200D02*
X91765000Y-76954819D01*
X91765000Y-76954819D02*
X91479286Y-76954819D01*
X91479286Y-76954819D02*
X91384048Y-76907200D01*
X91384048Y-76907200D02*
X91336429Y-76859580D01*
X92288810Y-75954819D02*
X92955476Y-75954819D01*
X92955476Y-75954819D02*
X92526905Y-76954819D01*
%TO.C,J36*%
X90955476Y-70874819D02*
X90955476Y-71589104D01*
X90955476Y-71589104D02*
X90907857Y-71731961D01*
X90907857Y-71731961D02*
X90812619Y-71827200D01*
X90812619Y-71827200D02*
X90669762Y-71874819D01*
X90669762Y-71874819D02*
X90574524Y-71874819D01*
X91336429Y-70874819D02*
X91955476Y-70874819D01*
X91955476Y-70874819D02*
X91622143Y-71255771D01*
X91622143Y-71255771D02*
X91765000Y-71255771D01*
X91765000Y-71255771D02*
X91860238Y-71303390D01*
X91860238Y-71303390D02*
X91907857Y-71351009D01*
X91907857Y-71351009D02*
X91955476Y-71446247D01*
X91955476Y-71446247D02*
X91955476Y-71684342D01*
X91955476Y-71684342D02*
X91907857Y-71779580D01*
X91907857Y-71779580D02*
X91860238Y-71827200D01*
X91860238Y-71827200D02*
X91765000Y-71874819D01*
X91765000Y-71874819D02*
X91479286Y-71874819D01*
X91479286Y-71874819D02*
X91384048Y-71827200D01*
X91384048Y-71827200D02*
X91336429Y-71779580D01*
X92812619Y-70874819D02*
X92622143Y-70874819D01*
X92622143Y-70874819D02*
X92526905Y-70922438D01*
X92526905Y-70922438D02*
X92479286Y-70970057D01*
X92479286Y-70970057D02*
X92384048Y-71112914D01*
X92384048Y-71112914D02*
X92336429Y-71303390D01*
X92336429Y-71303390D02*
X92336429Y-71684342D01*
X92336429Y-71684342D02*
X92384048Y-71779580D01*
X92384048Y-71779580D02*
X92431667Y-71827200D01*
X92431667Y-71827200D02*
X92526905Y-71874819D01*
X92526905Y-71874819D02*
X92717381Y-71874819D01*
X92717381Y-71874819D02*
X92812619Y-71827200D01*
X92812619Y-71827200D02*
X92860238Y-71779580D01*
X92860238Y-71779580D02*
X92907857Y-71684342D01*
X92907857Y-71684342D02*
X92907857Y-71446247D01*
X92907857Y-71446247D02*
X92860238Y-71351009D01*
X92860238Y-71351009D02*
X92812619Y-71303390D01*
X92812619Y-71303390D02*
X92717381Y-71255771D01*
X92717381Y-71255771D02*
X92526905Y-71255771D01*
X92526905Y-71255771D02*
X92431667Y-71303390D01*
X92431667Y-71303390D02*
X92384048Y-71351009D01*
X92384048Y-71351009D02*
X92336429Y-71446247D01*
%TO.C,J35*%
X172255476Y-33314819D02*
X172255476Y-34029104D01*
X172255476Y-34029104D02*
X172207857Y-34171961D01*
X172207857Y-34171961D02*
X172112619Y-34267200D01*
X172112619Y-34267200D02*
X171969762Y-34314819D01*
X171969762Y-34314819D02*
X171874524Y-34314819D01*
X172636429Y-33314819D02*
X173255476Y-33314819D01*
X173255476Y-33314819D02*
X172922143Y-33695771D01*
X172922143Y-33695771D02*
X173065000Y-33695771D01*
X173065000Y-33695771D02*
X173160238Y-33743390D01*
X173160238Y-33743390D02*
X173207857Y-33791009D01*
X173207857Y-33791009D02*
X173255476Y-33886247D01*
X173255476Y-33886247D02*
X173255476Y-34124342D01*
X173255476Y-34124342D02*
X173207857Y-34219580D01*
X173207857Y-34219580D02*
X173160238Y-34267200D01*
X173160238Y-34267200D02*
X173065000Y-34314819D01*
X173065000Y-34314819D02*
X172779286Y-34314819D01*
X172779286Y-34314819D02*
X172684048Y-34267200D01*
X172684048Y-34267200D02*
X172636429Y-34219580D01*
X174160238Y-33314819D02*
X173684048Y-33314819D01*
X173684048Y-33314819D02*
X173636429Y-33791009D01*
X173636429Y-33791009D02*
X173684048Y-33743390D01*
X173684048Y-33743390D02*
X173779286Y-33695771D01*
X173779286Y-33695771D02*
X174017381Y-33695771D01*
X174017381Y-33695771D02*
X174112619Y-33743390D01*
X174112619Y-33743390D02*
X174160238Y-33791009D01*
X174160238Y-33791009D02*
X174207857Y-33886247D01*
X174207857Y-33886247D02*
X174207857Y-34124342D01*
X174207857Y-34124342D02*
X174160238Y-34219580D01*
X174160238Y-34219580D02*
X174112619Y-34267200D01*
X174112619Y-34267200D02*
X174017381Y-34314819D01*
X174017381Y-34314819D02*
X173779286Y-34314819D01*
X173779286Y-34314819D02*
X173684048Y-34267200D01*
X173684048Y-34267200D02*
X173636429Y-34219580D01*
%TO.C,J34*%
X172255476Y-38394819D02*
X172255476Y-39109104D01*
X172255476Y-39109104D02*
X172207857Y-39251961D01*
X172207857Y-39251961D02*
X172112619Y-39347200D01*
X172112619Y-39347200D02*
X171969762Y-39394819D01*
X171969762Y-39394819D02*
X171874524Y-39394819D01*
X172636429Y-38394819D02*
X173255476Y-38394819D01*
X173255476Y-38394819D02*
X172922143Y-38775771D01*
X172922143Y-38775771D02*
X173065000Y-38775771D01*
X173065000Y-38775771D02*
X173160238Y-38823390D01*
X173160238Y-38823390D02*
X173207857Y-38871009D01*
X173207857Y-38871009D02*
X173255476Y-38966247D01*
X173255476Y-38966247D02*
X173255476Y-39204342D01*
X173255476Y-39204342D02*
X173207857Y-39299580D01*
X173207857Y-39299580D02*
X173160238Y-39347200D01*
X173160238Y-39347200D02*
X173065000Y-39394819D01*
X173065000Y-39394819D02*
X172779286Y-39394819D01*
X172779286Y-39394819D02*
X172684048Y-39347200D01*
X172684048Y-39347200D02*
X172636429Y-39299580D01*
X174112619Y-38728152D02*
X174112619Y-39394819D01*
X173874524Y-38347200D02*
X173636429Y-39061485D01*
X173636429Y-39061485D02*
X174255476Y-39061485D01*
%TO.C,J33*%
X190025476Y-55904819D02*
X190025476Y-56619104D01*
X190025476Y-56619104D02*
X189977857Y-56761961D01*
X189977857Y-56761961D02*
X189882619Y-56857200D01*
X189882619Y-56857200D02*
X189739762Y-56904819D01*
X189739762Y-56904819D02*
X189644524Y-56904819D01*
X190406429Y-55904819D02*
X191025476Y-55904819D01*
X191025476Y-55904819D02*
X190692143Y-56285771D01*
X190692143Y-56285771D02*
X190835000Y-56285771D01*
X190835000Y-56285771D02*
X190930238Y-56333390D01*
X190930238Y-56333390D02*
X190977857Y-56381009D01*
X190977857Y-56381009D02*
X191025476Y-56476247D01*
X191025476Y-56476247D02*
X191025476Y-56714342D01*
X191025476Y-56714342D02*
X190977857Y-56809580D01*
X190977857Y-56809580D02*
X190930238Y-56857200D01*
X190930238Y-56857200D02*
X190835000Y-56904819D01*
X190835000Y-56904819D02*
X190549286Y-56904819D01*
X190549286Y-56904819D02*
X190454048Y-56857200D01*
X190454048Y-56857200D02*
X190406429Y-56809580D01*
X191358810Y-55904819D02*
X191977857Y-55904819D01*
X191977857Y-55904819D02*
X191644524Y-56285771D01*
X191644524Y-56285771D02*
X191787381Y-56285771D01*
X191787381Y-56285771D02*
X191882619Y-56333390D01*
X191882619Y-56333390D02*
X191930238Y-56381009D01*
X191930238Y-56381009D02*
X191977857Y-56476247D01*
X191977857Y-56476247D02*
X191977857Y-56714342D01*
X191977857Y-56714342D02*
X191930238Y-56809580D01*
X191930238Y-56809580D02*
X191882619Y-56857200D01*
X191882619Y-56857200D02*
X191787381Y-56904819D01*
X191787381Y-56904819D02*
X191501667Y-56904819D01*
X191501667Y-56904819D02*
X191406429Y-56857200D01*
X191406429Y-56857200D02*
X191358810Y-56809580D01*
%TO.C,J32*%
X189632976Y-46974819D02*
X189632976Y-47689104D01*
X189632976Y-47689104D02*
X189585357Y-47831961D01*
X189585357Y-47831961D02*
X189490119Y-47927200D01*
X189490119Y-47927200D02*
X189347262Y-47974819D01*
X189347262Y-47974819D02*
X189252024Y-47974819D01*
X190013929Y-46974819D02*
X190632976Y-46974819D01*
X190632976Y-46974819D02*
X190299643Y-47355771D01*
X190299643Y-47355771D02*
X190442500Y-47355771D01*
X190442500Y-47355771D02*
X190537738Y-47403390D01*
X190537738Y-47403390D02*
X190585357Y-47451009D01*
X190585357Y-47451009D02*
X190632976Y-47546247D01*
X190632976Y-47546247D02*
X190632976Y-47784342D01*
X190632976Y-47784342D02*
X190585357Y-47879580D01*
X190585357Y-47879580D02*
X190537738Y-47927200D01*
X190537738Y-47927200D02*
X190442500Y-47974819D01*
X190442500Y-47974819D02*
X190156786Y-47974819D01*
X190156786Y-47974819D02*
X190061548Y-47927200D01*
X190061548Y-47927200D02*
X190013929Y-47879580D01*
X191013929Y-47070057D02*
X191061548Y-47022438D01*
X191061548Y-47022438D02*
X191156786Y-46974819D01*
X191156786Y-46974819D02*
X191394881Y-46974819D01*
X191394881Y-46974819D02*
X191490119Y-47022438D01*
X191490119Y-47022438D02*
X191537738Y-47070057D01*
X191537738Y-47070057D02*
X191585357Y-47165295D01*
X191585357Y-47165295D02*
X191585357Y-47260533D01*
X191585357Y-47260533D02*
X191537738Y-47403390D01*
X191537738Y-47403390D02*
X190966310Y-47974819D01*
X190966310Y-47974819D02*
X191585357Y-47974819D01*
%TO.C,J31*%
X172255476Y-63794819D02*
X172255476Y-64509104D01*
X172255476Y-64509104D02*
X172207857Y-64651961D01*
X172207857Y-64651961D02*
X172112619Y-64747200D01*
X172112619Y-64747200D02*
X171969762Y-64794819D01*
X171969762Y-64794819D02*
X171874524Y-64794819D01*
X172636429Y-63794819D02*
X173255476Y-63794819D01*
X173255476Y-63794819D02*
X172922143Y-64175771D01*
X172922143Y-64175771D02*
X173065000Y-64175771D01*
X173065000Y-64175771D02*
X173160238Y-64223390D01*
X173160238Y-64223390D02*
X173207857Y-64271009D01*
X173207857Y-64271009D02*
X173255476Y-64366247D01*
X173255476Y-64366247D02*
X173255476Y-64604342D01*
X173255476Y-64604342D02*
X173207857Y-64699580D01*
X173207857Y-64699580D02*
X173160238Y-64747200D01*
X173160238Y-64747200D02*
X173065000Y-64794819D01*
X173065000Y-64794819D02*
X172779286Y-64794819D01*
X172779286Y-64794819D02*
X172684048Y-64747200D01*
X172684048Y-64747200D02*
X172636429Y-64699580D01*
X174207857Y-64794819D02*
X173636429Y-64794819D01*
X173922143Y-64794819D02*
X173922143Y-63794819D01*
X173922143Y-63794819D02*
X173826905Y-63937676D01*
X173826905Y-63937676D02*
X173731667Y-64032914D01*
X173731667Y-64032914D02*
X173636429Y-64080533D01*
%TO.C,J30*%
X172255476Y-73954819D02*
X172255476Y-74669104D01*
X172255476Y-74669104D02*
X172207857Y-74811961D01*
X172207857Y-74811961D02*
X172112619Y-74907200D01*
X172112619Y-74907200D02*
X171969762Y-74954819D01*
X171969762Y-74954819D02*
X171874524Y-74954819D01*
X172636429Y-73954819D02*
X173255476Y-73954819D01*
X173255476Y-73954819D02*
X172922143Y-74335771D01*
X172922143Y-74335771D02*
X173065000Y-74335771D01*
X173065000Y-74335771D02*
X173160238Y-74383390D01*
X173160238Y-74383390D02*
X173207857Y-74431009D01*
X173207857Y-74431009D02*
X173255476Y-74526247D01*
X173255476Y-74526247D02*
X173255476Y-74764342D01*
X173255476Y-74764342D02*
X173207857Y-74859580D01*
X173207857Y-74859580D02*
X173160238Y-74907200D01*
X173160238Y-74907200D02*
X173065000Y-74954819D01*
X173065000Y-74954819D02*
X172779286Y-74954819D01*
X172779286Y-74954819D02*
X172684048Y-74907200D01*
X172684048Y-74907200D02*
X172636429Y-74859580D01*
X173874524Y-73954819D02*
X173969762Y-73954819D01*
X173969762Y-73954819D02*
X174065000Y-74002438D01*
X174065000Y-74002438D02*
X174112619Y-74050057D01*
X174112619Y-74050057D02*
X174160238Y-74145295D01*
X174160238Y-74145295D02*
X174207857Y-74335771D01*
X174207857Y-74335771D02*
X174207857Y-74573866D01*
X174207857Y-74573866D02*
X174160238Y-74764342D01*
X174160238Y-74764342D02*
X174112619Y-74859580D01*
X174112619Y-74859580D02*
X174065000Y-74907200D01*
X174065000Y-74907200D02*
X173969762Y-74954819D01*
X173969762Y-74954819D02*
X173874524Y-74954819D01*
X173874524Y-74954819D02*
X173779286Y-74907200D01*
X173779286Y-74907200D02*
X173731667Y-74859580D01*
X173731667Y-74859580D02*
X173684048Y-74764342D01*
X173684048Y-74764342D02*
X173636429Y-74573866D01*
X173636429Y-74573866D02*
X173636429Y-74335771D01*
X173636429Y-74335771D02*
X173684048Y-74145295D01*
X173684048Y-74145295D02*
X173731667Y-74050057D01*
X173731667Y-74050057D02*
X173779286Y-74002438D01*
X173779286Y-74002438D02*
X173874524Y-73954819D01*
%TO.C,J29*%
X189202976Y-71244819D02*
X189202976Y-71959104D01*
X189202976Y-71959104D02*
X189155357Y-72101961D01*
X189155357Y-72101961D02*
X189060119Y-72197200D01*
X189060119Y-72197200D02*
X188917262Y-72244819D01*
X188917262Y-72244819D02*
X188822024Y-72244819D01*
X189631548Y-71340057D02*
X189679167Y-71292438D01*
X189679167Y-71292438D02*
X189774405Y-71244819D01*
X189774405Y-71244819D02*
X190012500Y-71244819D01*
X190012500Y-71244819D02*
X190107738Y-71292438D01*
X190107738Y-71292438D02*
X190155357Y-71340057D01*
X190155357Y-71340057D02*
X190202976Y-71435295D01*
X190202976Y-71435295D02*
X190202976Y-71530533D01*
X190202976Y-71530533D02*
X190155357Y-71673390D01*
X190155357Y-71673390D02*
X189583929Y-72244819D01*
X189583929Y-72244819D02*
X190202976Y-72244819D01*
X190679167Y-72244819D02*
X190869643Y-72244819D01*
X190869643Y-72244819D02*
X190964881Y-72197200D01*
X190964881Y-72197200D02*
X191012500Y-72149580D01*
X191012500Y-72149580D02*
X191107738Y-72006723D01*
X191107738Y-72006723D02*
X191155357Y-71816247D01*
X191155357Y-71816247D02*
X191155357Y-71435295D01*
X191155357Y-71435295D02*
X191107738Y-71340057D01*
X191107738Y-71340057D02*
X191060119Y-71292438D01*
X191060119Y-71292438D02*
X190964881Y-71244819D01*
X190964881Y-71244819D02*
X190774405Y-71244819D01*
X190774405Y-71244819D02*
X190679167Y-71292438D01*
X190679167Y-71292438D02*
X190631548Y-71340057D01*
X190631548Y-71340057D02*
X190583929Y-71435295D01*
X190583929Y-71435295D02*
X190583929Y-71673390D01*
X190583929Y-71673390D02*
X190631548Y-71768628D01*
X190631548Y-71768628D02*
X190679167Y-71816247D01*
X190679167Y-71816247D02*
X190774405Y-71863866D01*
X190774405Y-71863866D02*
X190964881Y-71863866D01*
X190964881Y-71863866D02*
X191060119Y-71816247D01*
X191060119Y-71816247D02*
X191107738Y-71768628D01*
X191107738Y-71768628D02*
X191155357Y-71673390D01*
%TO.C,J28*%
X133804819Y-73189103D02*
X134519104Y-73189103D01*
X134519104Y-73189103D02*
X134661961Y-73236722D01*
X134661961Y-73236722D02*
X134757200Y-73331960D01*
X134757200Y-73331960D02*
X134804819Y-73474817D01*
X134804819Y-73474817D02*
X134804819Y-73570055D01*
X133900057Y-72760531D02*
X133852438Y-72712912D01*
X133852438Y-72712912D02*
X133804819Y-72617674D01*
X133804819Y-72617674D02*
X133804819Y-72379579D01*
X133804819Y-72379579D02*
X133852438Y-72284341D01*
X133852438Y-72284341D02*
X133900057Y-72236722D01*
X133900057Y-72236722D02*
X133995295Y-72189103D01*
X133995295Y-72189103D02*
X134090533Y-72189103D01*
X134090533Y-72189103D02*
X134233390Y-72236722D01*
X134233390Y-72236722D02*
X134804819Y-72808150D01*
X134804819Y-72808150D02*
X134804819Y-72189103D01*
X134233390Y-71617674D02*
X134185771Y-71712912D01*
X134185771Y-71712912D02*
X134138152Y-71760531D01*
X134138152Y-71760531D02*
X134042914Y-71808150D01*
X134042914Y-71808150D02*
X133995295Y-71808150D01*
X133995295Y-71808150D02*
X133900057Y-71760531D01*
X133900057Y-71760531D02*
X133852438Y-71712912D01*
X133852438Y-71712912D02*
X133804819Y-71617674D01*
X133804819Y-71617674D02*
X133804819Y-71427198D01*
X133804819Y-71427198D02*
X133852438Y-71331960D01*
X133852438Y-71331960D02*
X133900057Y-71284341D01*
X133900057Y-71284341D02*
X133995295Y-71236722D01*
X133995295Y-71236722D02*
X134042914Y-71236722D01*
X134042914Y-71236722D02*
X134138152Y-71284341D01*
X134138152Y-71284341D02*
X134185771Y-71331960D01*
X134185771Y-71331960D02*
X134233390Y-71427198D01*
X134233390Y-71427198D02*
X134233390Y-71617674D01*
X134233390Y-71617674D02*
X134281009Y-71712912D01*
X134281009Y-71712912D02*
X134328628Y-71760531D01*
X134328628Y-71760531D02*
X134423866Y-71808150D01*
X134423866Y-71808150D02*
X134614342Y-71808150D01*
X134614342Y-71808150D02*
X134709580Y-71760531D01*
X134709580Y-71760531D02*
X134757200Y-71712912D01*
X134757200Y-71712912D02*
X134804819Y-71617674D01*
X134804819Y-71617674D02*
X134804819Y-71427198D01*
X134804819Y-71427198D02*
X134757200Y-71331960D01*
X134757200Y-71331960D02*
X134709580Y-71284341D01*
X134709580Y-71284341D02*
X134614342Y-71236722D01*
X134614342Y-71236722D02*
X134423866Y-71236722D01*
X134423866Y-71236722D02*
X134328628Y-71284341D01*
X134328628Y-71284341D02*
X134281009Y-71331960D01*
X134281009Y-71331960D02*
X134233390Y-71427198D01*
%TO.C,J27*%
X90955476Y-86114819D02*
X90955476Y-86829104D01*
X90955476Y-86829104D02*
X90907857Y-86971961D01*
X90907857Y-86971961D02*
X90812619Y-87067200D01*
X90812619Y-87067200D02*
X90669762Y-87114819D01*
X90669762Y-87114819D02*
X90574524Y-87114819D01*
X91384048Y-86210057D02*
X91431667Y-86162438D01*
X91431667Y-86162438D02*
X91526905Y-86114819D01*
X91526905Y-86114819D02*
X91765000Y-86114819D01*
X91765000Y-86114819D02*
X91860238Y-86162438D01*
X91860238Y-86162438D02*
X91907857Y-86210057D01*
X91907857Y-86210057D02*
X91955476Y-86305295D01*
X91955476Y-86305295D02*
X91955476Y-86400533D01*
X91955476Y-86400533D02*
X91907857Y-86543390D01*
X91907857Y-86543390D02*
X91336429Y-87114819D01*
X91336429Y-87114819D02*
X91955476Y-87114819D01*
X92288810Y-86114819D02*
X92955476Y-86114819D01*
X92955476Y-86114819D02*
X92526905Y-87114819D01*
%TO.C,J26*%
X129009819Y-73189103D02*
X129724104Y-73189103D01*
X129724104Y-73189103D02*
X129866961Y-73236722D01*
X129866961Y-73236722D02*
X129962200Y-73331960D01*
X129962200Y-73331960D02*
X130009819Y-73474817D01*
X130009819Y-73474817D02*
X130009819Y-73570055D01*
X129105057Y-72760531D02*
X129057438Y-72712912D01*
X129057438Y-72712912D02*
X129009819Y-72617674D01*
X129009819Y-72617674D02*
X129009819Y-72379579D01*
X129009819Y-72379579D02*
X129057438Y-72284341D01*
X129057438Y-72284341D02*
X129105057Y-72236722D01*
X129105057Y-72236722D02*
X129200295Y-72189103D01*
X129200295Y-72189103D02*
X129295533Y-72189103D01*
X129295533Y-72189103D02*
X129438390Y-72236722D01*
X129438390Y-72236722D02*
X130009819Y-72808150D01*
X130009819Y-72808150D02*
X130009819Y-72189103D01*
X129009819Y-71331960D02*
X129009819Y-71522436D01*
X129009819Y-71522436D02*
X129057438Y-71617674D01*
X129057438Y-71617674D02*
X129105057Y-71665293D01*
X129105057Y-71665293D02*
X129247914Y-71760531D01*
X129247914Y-71760531D02*
X129438390Y-71808150D01*
X129438390Y-71808150D02*
X129819342Y-71808150D01*
X129819342Y-71808150D02*
X129914580Y-71760531D01*
X129914580Y-71760531D02*
X129962200Y-71712912D01*
X129962200Y-71712912D02*
X130009819Y-71617674D01*
X130009819Y-71617674D02*
X130009819Y-71427198D01*
X130009819Y-71427198D02*
X129962200Y-71331960D01*
X129962200Y-71331960D02*
X129914580Y-71284341D01*
X129914580Y-71284341D02*
X129819342Y-71236722D01*
X129819342Y-71236722D02*
X129581247Y-71236722D01*
X129581247Y-71236722D02*
X129486009Y-71284341D01*
X129486009Y-71284341D02*
X129438390Y-71331960D01*
X129438390Y-71331960D02*
X129390771Y-71427198D01*
X129390771Y-71427198D02*
X129390771Y-71617674D01*
X129390771Y-71617674D02*
X129438390Y-71712912D01*
X129438390Y-71712912D02*
X129486009Y-71760531D01*
X129486009Y-71760531D02*
X129581247Y-71808150D01*
%TO.C,J25*%
X90955476Y-91194819D02*
X90955476Y-91909104D01*
X90955476Y-91909104D02*
X90907857Y-92051961D01*
X90907857Y-92051961D02*
X90812619Y-92147200D01*
X90812619Y-92147200D02*
X90669762Y-92194819D01*
X90669762Y-92194819D02*
X90574524Y-92194819D01*
X91384048Y-91290057D02*
X91431667Y-91242438D01*
X91431667Y-91242438D02*
X91526905Y-91194819D01*
X91526905Y-91194819D02*
X91765000Y-91194819D01*
X91765000Y-91194819D02*
X91860238Y-91242438D01*
X91860238Y-91242438D02*
X91907857Y-91290057D01*
X91907857Y-91290057D02*
X91955476Y-91385295D01*
X91955476Y-91385295D02*
X91955476Y-91480533D01*
X91955476Y-91480533D02*
X91907857Y-91623390D01*
X91907857Y-91623390D02*
X91336429Y-92194819D01*
X91336429Y-92194819D02*
X91955476Y-92194819D01*
X92860238Y-91194819D02*
X92384048Y-91194819D01*
X92384048Y-91194819D02*
X92336429Y-91671009D01*
X92336429Y-91671009D02*
X92384048Y-91623390D01*
X92384048Y-91623390D02*
X92479286Y-91575771D01*
X92479286Y-91575771D02*
X92717381Y-91575771D01*
X92717381Y-91575771D02*
X92812619Y-91623390D01*
X92812619Y-91623390D02*
X92860238Y-91671009D01*
X92860238Y-91671009D02*
X92907857Y-91766247D01*
X92907857Y-91766247D02*
X92907857Y-92004342D01*
X92907857Y-92004342D02*
X92860238Y-92099580D01*
X92860238Y-92099580D02*
X92812619Y-92147200D01*
X92812619Y-92147200D02*
X92717381Y-92194819D01*
X92717381Y-92194819D02*
X92479286Y-92194819D01*
X92479286Y-92194819D02*
X92384048Y-92147200D01*
X92384048Y-92147200D02*
X92336429Y-92099580D01*
%TO.C,J24*%
X172255476Y-68874819D02*
X172255476Y-69589104D01*
X172255476Y-69589104D02*
X172207857Y-69731961D01*
X172207857Y-69731961D02*
X172112619Y-69827200D01*
X172112619Y-69827200D02*
X171969762Y-69874819D01*
X171969762Y-69874819D02*
X171874524Y-69874819D01*
X172684048Y-68970057D02*
X172731667Y-68922438D01*
X172731667Y-68922438D02*
X172826905Y-68874819D01*
X172826905Y-68874819D02*
X173065000Y-68874819D01*
X173065000Y-68874819D02*
X173160238Y-68922438D01*
X173160238Y-68922438D02*
X173207857Y-68970057D01*
X173207857Y-68970057D02*
X173255476Y-69065295D01*
X173255476Y-69065295D02*
X173255476Y-69160533D01*
X173255476Y-69160533D02*
X173207857Y-69303390D01*
X173207857Y-69303390D02*
X172636429Y-69874819D01*
X172636429Y-69874819D02*
X173255476Y-69874819D01*
X174112619Y-69208152D02*
X174112619Y-69874819D01*
X173874524Y-68827200D02*
X173636429Y-69541485D01*
X173636429Y-69541485D02*
X174255476Y-69541485D01*
%TO.C,J23*%
X193320476Y-78085239D02*
X193320476Y-78799524D01*
X193320476Y-78799524D02*
X193272857Y-78942381D01*
X193272857Y-78942381D02*
X193177619Y-79037620D01*
X193177619Y-79037620D02*
X193034762Y-79085239D01*
X193034762Y-79085239D02*
X192939524Y-79085239D01*
X193749048Y-78180477D02*
X193796667Y-78132858D01*
X193796667Y-78132858D02*
X193891905Y-78085239D01*
X193891905Y-78085239D02*
X194130000Y-78085239D01*
X194130000Y-78085239D02*
X194225238Y-78132858D01*
X194225238Y-78132858D02*
X194272857Y-78180477D01*
X194272857Y-78180477D02*
X194320476Y-78275715D01*
X194320476Y-78275715D02*
X194320476Y-78370953D01*
X194320476Y-78370953D02*
X194272857Y-78513810D01*
X194272857Y-78513810D02*
X193701429Y-79085239D01*
X193701429Y-79085239D02*
X194320476Y-79085239D01*
X194653810Y-78085239D02*
X195272857Y-78085239D01*
X195272857Y-78085239D02*
X194939524Y-78466191D01*
X194939524Y-78466191D02*
X195082381Y-78466191D01*
X195082381Y-78466191D02*
X195177619Y-78513810D01*
X195177619Y-78513810D02*
X195225238Y-78561429D01*
X195225238Y-78561429D02*
X195272857Y-78656667D01*
X195272857Y-78656667D02*
X195272857Y-78894762D01*
X195272857Y-78894762D02*
X195225238Y-78990000D01*
X195225238Y-78990000D02*
X195177619Y-79037620D01*
X195177619Y-79037620D02*
X195082381Y-79085239D01*
X195082381Y-79085239D02*
X194796667Y-79085239D01*
X194796667Y-79085239D02*
X194701429Y-79037620D01*
X194701429Y-79037620D02*
X194653810Y-78990000D01*
%TO.C,J22*%
X172255476Y-46014819D02*
X172255476Y-46729104D01*
X172255476Y-46729104D02*
X172207857Y-46871961D01*
X172207857Y-46871961D02*
X172112619Y-46967200D01*
X172112619Y-46967200D02*
X171969762Y-47014819D01*
X171969762Y-47014819D02*
X171874524Y-47014819D01*
X172684048Y-46110057D02*
X172731667Y-46062438D01*
X172731667Y-46062438D02*
X172826905Y-46014819D01*
X172826905Y-46014819D02*
X173065000Y-46014819D01*
X173065000Y-46014819D02*
X173160238Y-46062438D01*
X173160238Y-46062438D02*
X173207857Y-46110057D01*
X173207857Y-46110057D02*
X173255476Y-46205295D01*
X173255476Y-46205295D02*
X173255476Y-46300533D01*
X173255476Y-46300533D02*
X173207857Y-46443390D01*
X173207857Y-46443390D02*
X172636429Y-47014819D01*
X172636429Y-47014819D02*
X173255476Y-47014819D01*
X173636429Y-46110057D02*
X173684048Y-46062438D01*
X173684048Y-46062438D02*
X173779286Y-46014819D01*
X173779286Y-46014819D02*
X174017381Y-46014819D01*
X174017381Y-46014819D02*
X174112619Y-46062438D01*
X174112619Y-46062438D02*
X174160238Y-46110057D01*
X174160238Y-46110057D02*
X174207857Y-46205295D01*
X174207857Y-46205295D02*
X174207857Y-46300533D01*
X174207857Y-46300533D02*
X174160238Y-46443390D01*
X174160238Y-46443390D02*
X173588810Y-47014819D01*
X173588810Y-47014819D02*
X174207857Y-47014819D01*
%TO.C,J21*%
X138884819Y-73189103D02*
X139599104Y-73189103D01*
X139599104Y-73189103D02*
X139741961Y-73236722D01*
X139741961Y-73236722D02*
X139837200Y-73331960D01*
X139837200Y-73331960D02*
X139884819Y-73474817D01*
X139884819Y-73474817D02*
X139884819Y-73570055D01*
X138980057Y-72760531D02*
X138932438Y-72712912D01*
X138932438Y-72712912D02*
X138884819Y-72617674D01*
X138884819Y-72617674D02*
X138884819Y-72379579D01*
X138884819Y-72379579D02*
X138932438Y-72284341D01*
X138932438Y-72284341D02*
X138980057Y-72236722D01*
X138980057Y-72236722D02*
X139075295Y-72189103D01*
X139075295Y-72189103D02*
X139170533Y-72189103D01*
X139170533Y-72189103D02*
X139313390Y-72236722D01*
X139313390Y-72236722D02*
X139884819Y-72808150D01*
X139884819Y-72808150D02*
X139884819Y-72189103D01*
X139884819Y-71236722D02*
X139884819Y-71808150D01*
X139884819Y-71522436D02*
X138884819Y-71522436D01*
X138884819Y-71522436D02*
X139027676Y-71617674D01*
X139027676Y-71617674D02*
X139122914Y-71712912D01*
X139122914Y-71712912D02*
X139170533Y-71808150D01*
%TO.C,J20*%
X172255476Y-43474819D02*
X172255476Y-44189104D01*
X172255476Y-44189104D02*
X172207857Y-44331961D01*
X172207857Y-44331961D02*
X172112619Y-44427200D01*
X172112619Y-44427200D02*
X171969762Y-44474819D01*
X171969762Y-44474819D02*
X171874524Y-44474819D01*
X172684048Y-43570057D02*
X172731667Y-43522438D01*
X172731667Y-43522438D02*
X172826905Y-43474819D01*
X172826905Y-43474819D02*
X173065000Y-43474819D01*
X173065000Y-43474819D02*
X173160238Y-43522438D01*
X173160238Y-43522438D02*
X173207857Y-43570057D01*
X173207857Y-43570057D02*
X173255476Y-43665295D01*
X173255476Y-43665295D02*
X173255476Y-43760533D01*
X173255476Y-43760533D02*
X173207857Y-43903390D01*
X173207857Y-43903390D02*
X172636429Y-44474819D01*
X172636429Y-44474819D02*
X173255476Y-44474819D01*
X173874524Y-43474819D02*
X173969762Y-43474819D01*
X173969762Y-43474819D02*
X174065000Y-43522438D01*
X174065000Y-43522438D02*
X174112619Y-43570057D01*
X174112619Y-43570057D02*
X174160238Y-43665295D01*
X174160238Y-43665295D02*
X174207857Y-43855771D01*
X174207857Y-43855771D02*
X174207857Y-44093866D01*
X174207857Y-44093866D02*
X174160238Y-44284342D01*
X174160238Y-44284342D02*
X174112619Y-44379580D01*
X174112619Y-44379580D02*
X174065000Y-44427200D01*
X174065000Y-44427200D02*
X173969762Y-44474819D01*
X173969762Y-44474819D02*
X173874524Y-44474819D01*
X173874524Y-44474819D02*
X173779286Y-44427200D01*
X173779286Y-44427200D02*
X173731667Y-44379580D01*
X173731667Y-44379580D02*
X173684048Y-44284342D01*
X173684048Y-44284342D02*
X173636429Y-44093866D01*
X173636429Y-44093866D02*
X173636429Y-43855771D01*
X173636429Y-43855771D02*
X173684048Y-43665295D01*
X173684048Y-43665295D02*
X173731667Y-43570057D01*
X173731667Y-43570057D02*
X173779286Y-43522438D01*
X173779286Y-43522438D02*
X173874524Y-43474819D01*
%TO.C,J19*%
X167920476Y-106025239D02*
X167920476Y-106739524D01*
X167920476Y-106739524D02*
X167872857Y-106882381D01*
X167872857Y-106882381D02*
X167777619Y-106977620D01*
X167777619Y-106977620D02*
X167634762Y-107025239D01*
X167634762Y-107025239D02*
X167539524Y-107025239D01*
X168920476Y-107025239D02*
X168349048Y-107025239D01*
X168634762Y-107025239D02*
X168634762Y-106025239D01*
X168634762Y-106025239D02*
X168539524Y-106168096D01*
X168539524Y-106168096D02*
X168444286Y-106263334D01*
X168444286Y-106263334D02*
X168349048Y-106310953D01*
X169396667Y-107025239D02*
X169587143Y-107025239D01*
X169587143Y-107025239D02*
X169682381Y-106977620D01*
X169682381Y-106977620D02*
X169730000Y-106930000D01*
X169730000Y-106930000D02*
X169825238Y-106787143D01*
X169825238Y-106787143D02*
X169872857Y-106596667D01*
X169872857Y-106596667D02*
X169872857Y-106215715D01*
X169872857Y-106215715D02*
X169825238Y-106120477D01*
X169825238Y-106120477D02*
X169777619Y-106072858D01*
X169777619Y-106072858D02*
X169682381Y-106025239D01*
X169682381Y-106025239D02*
X169491905Y-106025239D01*
X169491905Y-106025239D02*
X169396667Y-106072858D01*
X169396667Y-106072858D02*
X169349048Y-106120477D01*
X169349048Y-106120477D02*
X169301429Y-106215715D01*
X169301429Y-106215715D02*
X169301429Y-106453810D01*
X169301429Y-106453810D02*
X169349048Y-106549048D01*
X169349048Y-106549048D02*
X169396667Y-106596667D01*
X169396667Y-106596667D02*
X169491905Y-106644286D01*
X169491905Y-106644286D02*
X169682381Y-106644286D01*
X169682381Y-106644286D02*
X169777619Y-106596667D01*
X169777619Y-106596667D02*
X169825238Y-106549048D01*
X169825238Y-106549048D02*
X169872857Y-106453810D01*
%TO.C,J18*%
X170175476Y-121644819D02*
X170175476Y-122359104D01*
X170175476Y-122359104D02*
X170127857Y-122501961D01*
X170127857Y-122501961D02*
X170032619Y-122597200D01*
X170032619Y-122597200D02*
X169889762Y-122644819D01*
X169889762Y-122644819D02*
X169794524Y-122644819D01*
X171175476Y-122644819D02*
X170604048Y-122644819D01*
X170889762Y-122644819D02*
X170889762Y-121644819D01*
X170889762Y-121644819D02*
X170794524Y-121787676D01*
X170794524Y-121787676D02*
X170699286Y-121882914D01*
X170699286Y-121882914D02*
X170604048Y-121930533D01*
X171746905Y-122073390D02*
X171651667Y-122025771D01*
X171651667Y-122025771D02*
X171604048Y-121978152D01*
X171604048Y-121978152D02*
X171556429Y-121882914D01*
X171556429Y-121882914D02*
X171556429Y-121835295D01*
X171556429Y-121835295D02*
X171604048Y-121740057D01*
X171604048Y-121740057D02*
X171651667Y-121692438D01*
X171651667Y-121692438D02*
X171746905Y-121644819D01*
X171746905Y-121644819D02*
X171937381Y-121644819D01*
X171937381Y-121644819D02*
X172032619Y-121692438D01*
X172032619Y-121692438D02*
X172080238Y-121740057D01*
X172080238Y-121740057D02*
X172127857Y-121835295D01*
X172127857Y-121835295D02*
X172127857Y-121882914D01*
X172127857Y-121882914D02*
X172080238Y-121978152D01*
X172080238Y-121978152D02*
X172032619Y-122025771D01*
X172032619Y-122025771D02*
X171937381Y-122073390D01*
X171937381Y-122073390D02*
X171746905Y-122073390D01*
X171746905Y-122073390D02*
X171651667Y-122121009D01*
X171651667Y-122121009D02*
X171604048Y-122168628D01*
X171604048Y-122168628D02*
X171556429Y-122263866D01*
X171556429Y-122263866D02*
X171556429Y-122454342D01*
X171556429Y-122454342D02*
X171604048Y-122549580D01*
X171604048Y-122549580D02*
X171651667Y-122597200D01*
X171651667Y-122597200D02*
X171746905Y-122644819D01*
X171746905Y-122644819D02*
X171937381Y-122644819D01*
X171937381Y-122644819D02*
X172032619Y-122597200D01*
X172032619Y-122597200D02*
X172080238Y-122549580D01*
X172080238Y-122549580D02*
X172127857Y-122454342D01*
X172127857Y-122454342D02*
X172127857Y-122263866D01*
X172127857Y-122263866D02*
X172080238Y-122168628D01*
X172080238Y-122168628D02*
X172032619Y-122121009D01*
X172032619Y-122121009D02*
X171937381Y-122073390D01*
%TO.C,J17*%
X196335476Y-130659399D02*
X196335476Y-131373684D01*
X196335476Y-131373684D02*
X196287857Y-131516541D01*
X196287857Y-131516541D02*
X196192619Y-131611780D01*
X196192619Y-131611780D02*
X196049762Y-131659399D01*
X196049762Y-131659399D02*
X195954524Y-131659399D01*
X197335476Y-131659399D02*
X196764048Y-131659399D01*
X197049762Y-131659399D02*
X197049762Y-130659399D01*
X197049762Y-130659399D02*
X196954524Y-130802256D01*
X196954524Y-130802256D02*
X196859286Y-130897494D01*
X196859286Y-130897494D02*
X196764048Y-130945113D01*
X197668810Y-130659399D02*
X198335476Y-130659399D01*
X198335476Y-130659399D02*
X197906905Y-131659399D01*
%TO.C,J16*%
X170175476Y-131804819D02*
X170175476Y-132519104D01*
X170175476Y-132519104D02*
X170127857Y-132661961D01*
X170127857Y-132661961D02*
X170032619Y-132757200D01*
X170032619Y-132757200D02*
X169889762Y-132804819D01*
X169889762Y-132804819D02*
X169794524Y-132804819D01*
X171175476Y-132804819D02*
X170604048Y-132804819D01*
X170889762Y-132804819D02*
X170889762Y-131804819D01*
X170889762Y-131804819D02*
X170794524Y-131947676D01*
X170794524Y-131947676D02*
X170699286Y-132042914D01*
X170699286Y-132042914D02*
X170604048Y-132090533D01*
X172032619Y-131804819D02*
X171842143Y-131804819D01*
X171842143Y-131804819D02*
X171746905Y-131852438D01*
X171746905Y-131852438D02*
X171699286Y-131900057D01*
X171699286Y-131900057D02*
X171604048Y-132042914D01*
X171604048Y-132042914D02*
X171556429Y-132233390D01*
X171556429Y-132233390D02*
X171556429Y-132614342D01*
X171556429Y-132614342D02*
X171604048Y-132709580D01*
X171604048Y-132709580D02*
X171651667Y-132757200D01*
X171651667Y-132757200D02*
X171746905Y-132804819D01*
X171746905Y-132804819D02*
X171937381Y-132804819D01*
X171937381Y-132804819D02*
X172032619Y-132757200D01*
X172032619Y-132757200D02*
X172080238Y-132709580D01*
X172080238Y-132709580D02*
X172127857Y-132614342D01*
X172127857Y-132614342D02*
X172127857Y-132376247D01*
X172127857Y-132376247D02*
X172080238Y-132281009D01*
X172080238Y-132281009D02*
X172032619Y-132233390D01*
X172032619Y-132233390D02*
X171937381Y-132185771D01*
X171937381Y-132185771D02*
X171746905Y-132185771D01*
X171746905Y-132185771D02*
X171651667Y-132233390D01*
X171651667Y-132233390D02*
X171604048Y-132281009D01*
X171604048Y-132281009D02*
X171556429Y-132376247D01*
%TO.C,J15*%
X170175476Y-136884819D02*
X170175476Y-137599104D01*
X170175476Y-137599104D02*
X170127857Y-137741961D01*
X170127857Y-137741961D02*
X170032619Y-137837200D01*
X170032619Y-137837200D02*
X169889762Y-137884819D01*
X169889762Y-137884819D02*
X169794524Y-137884819D01*
X171175476Y-137884819D02*
X170604048Y-137884819D01*
X170889762Y-137884819D02*
X170889762Y-136884819D01*
X170889762Y-136884819D02*
X170794524Y-137027676D01*
X170794524Y-137027676D02*
X170699286Y-137122914D01*
X170699286Y-137122914D02*
X170604048Y-137170533D01*
X172080238Y-136884819D02*
X171604048Y-136884819D01*
X171604048Y-136884819D02*
X171556429Y-137361009D01*
X171556429Y-137361009D02*
X171604048Y-137313390D01*
X171604048Y-137313390D02*
X171699286Y-137265771D01*
X171699286Y-137265771D02*
X171937381Y-137265771D01*
X171937381Y-137265771D02*
X172032619Y-137313390D01*
X172032619Y-137313390D02*
X172080238Y-137361009D01*
X172080238Y-137361009D02*
X172127857Y-137456247D01*
X172127857Y-137456247D02*
X172127857Y-137694342D01*
X172127857Y-137694342D02*
X172080238Y-137789580D01*
X172080238Y-137789580D02*
X172032619Y-137837200D01*
X172032619Y-137837200D02*
X171937381Y-137884819D01*
X171937381Y-137884819D02*
X171699286Y-137884819D01*
X171699286Y-137884819D02*
X171604048Y-137837200D01*
X171604048Y-137837200D02*
X171556429Y-137789580D01*
%TO.C,J14*%
X124865476Y-131264819D02*
X124865476Y-131979104D01*
X124865476Y-131979104D02*
X124817857Y-132121961D01*
X124817857Y-132121961D02*
X124722619Y-132217200D01*
X124722619Y-132217200D02*
X124579762Y-132264819D01*
X124579762Y-132264819D02*
X124484524Y-132264819D01*
X125865476Y-132264819D02*
X125294048Y-132264819D01*
X125579762Y-132264819D02*
X125579762Y-131264819D01*
X125579762Y-131264819D02*
X125484524Y-131407676D01*
X125484524Y-131407676D02*
X125389286Y-131502914D01*
X125389286Y-131502914D02*
X125294048Y-131550533D01*
X126722619Y-131598152D02*
X126722619Y-132264819D01*
X126484524Y-131217200D02*
X126246429Y-131931485D01*
X126246429Y-131931485D02*
X126865476Y-131931485D01*
%TO.C,J13*%
X94164819Y-49639523D02*
X94879104Y-49639523D01*
X94879104Y-49639523D02*
X95021961Y-49687142D01*
X95021961Y-49687142D02*
X95117200Y-49782380D01*
X95117200Y-49782380D02*
X95164819Y-49925237D01*
X95164819Y-49925237D02*
X95164819Y-50020475D01*
X95164819Y-48639523D02*
X95164819Y-49210951D01*
X95164819Y-48925237D02*
X94164819Y-48925237D01*
X94164819Y-48925237D02*
X94307676Y-49020475D01*
X94307676Y-49020475D02*
X94402914Y-49115713D01*
X94402914Y-49115713D02*
X94450533Y-49210951D01*
X94164819Y-48306189D02*
X94164819Y-47687142D01*
X94164819Y-47687142D02*
X94545771Y-48020475D01*
X94545771Y-48020475D02*
X94545771Y-47877618D01*
X94545771Y-47877618D02*
X94593390Y-47782380D01*
X94593390Y-47782380D02*
X94641009Y-47734761D01*
X94641009Y-47734761D02*
X94736247Y-47687142D01*
X94736247Y-47687142D02*
X94974342Y-47687142D01*
X94974342Y-47687142D02*
X95069580Y-47734761D01*
X95069580Y-47734761D02*
X95117200Y-47782380D01*
X95117200Y-47782380D02*
X95164819Y-47877618D01*
X95164819Y-47877618D02*
X95164819Y-48163332D01*
X95164819Y-48163332D02*
X95117200Y-48258570D01*
X95117200Y-48258570D02*
X95069580Y-48306189D01*
%TO.C,J12*%
X90955476Y-40394819D02*
X90955476Y-41109104D01*
X90955476Y-41109104D02*
X90907857Y-41251961D01*
X90907857Y-41251961D02*
X90812619Y-41347200D01*
X90812619Y-41347200D02*
X90669762Y-41394819D01*
X90669762Y-41394819D02*
X90574524Y-41394819D01*
X91955476Y-41394819D02*
X91384048Y-41394819D01*
X91669762Y-41394819D02*
X91669762Y-40394819D01*
X91669762Y-40394819D02*
X91574524Y-40537676D01*
X91574524Y-40537676D02*
X91479286Y-40632914D01*
X91479286Y-40632914D02*
X91384048Y-40680533D01*
X92336429Y-40490057D02*
X92384048Y-40442438D01*
X92384048Y-40442438D02*
X92479286Y-40394819D01*
X92479286Y-40394819D02*
X92717381Y-40394819D01*
X92717381Y-40394819D02*
X92812619Y-40442438D01*
X92812619Y-40442438D02*
X92860238Y-40490057D01*
X92860238Y-40490057D02*
X92907857Y-40585295D01*
X92907857Y-40585295D02*
X92907857Y-40680533D01*
X92907857Y-40680533D02*
X92860238Y-40823390D01*
X92860238Y-40823390D02*
X92288810Y-41394819D01*
X92288810Y-41394819D02*
X92907857Y-41394819D01*
%TO.C,J11*%
X111275476Y-96334819D02*
X111275476Y-97049104D01*
X111275476Y-97049104D02*
X111227857Y-97191961D01*
X111227857Y-97191961D02*
X111132619Y-97287200D01*
X111132619Y-97287200D02*
X110989762Y-97334819D01*
X110989762Y-97334819D02*
X110894524Y-97334819D01*
X112275476Y-97334819D02*
X111704048Y-97334819D01*
X111989762Y-97334819D02*
X111989762Y-96334819D01*
X111989762Y-96334819D02*
X111894524Y-96477676D01*
X111894524Y-96477676D02*
X111799286Y-96572914D01*
X111799286Y-96572914D02*
X111704048Y-96620533D01*
X113227857Y-97334819D02*
X112656429Y-97334819D01*
X112942143Y-97334819D02*
X112942143Y-96334819D01*
X112942143Y-96334819D02*
X112846905Y-96477676D01*
X112846905Y-96477676D02*
X112751667Y-96572914D01*
X112751667Y-96572914D02*
X112656429Y-96620533D01*
%TO.C,J10*%
X146855476Y-90459819D02*
X146855476Y-91174104D01*
X146855476Y-91174104D02*
X146807857Y-91316961D01*
X146807857Y-91316961D02*
X146712619Y-91412200D01*
X146712619Y-91412200D02*
X146569762Y-91459819D01*
X146569762Y-91459819D02*
X146474524Y-91459819D01*
X147855476Y-91459819D02*
X147284048Y-91459819D01*
X147569762Y-91459819D02*
X147569762Y-90459819D01*
X147569762Y-90459819D02*
X147474524Y-90602676D01*
X147474524Y-90602676D02*
X147379286Y-90697914D01*
X147379286Y-90697914D02*
X147284048Y-90745533D01*
X148474524Y-90459819D02*
X148569762Y-90459819D01*
X148569762Y-90459819D02*
X148665000Y-90507438D01*
X148665000Y-90507438D02*
X148712619Y-90555057D01*
X148712619Y-90555057D02*
X148760238Y-90650295D01*
X148760238Y-90650295D02*
X148807857Y-90840771D01*
X148807857Y-90840771D02*
X148807857Y-91078866D01*
X148807857Y-91078866D02*
X148760238Y-91269342D01*
X148760238Y-91269342D02*
X148712619Y-91364580D01*
X148712619Y-91364580D02*
X148665000Y-91412200D01*
X148665000Y-91412200D02*
X148569762Y-91459819D01*
X148569762Y-91459819D02*
X148474524Y-91459819D01*
X148474524Y-91459819D02*
X148379286Y-91412200D01*
X148379286Y-91412200D02*
X148331667Y-91364580D01*
X148331667Y-91364580D02*
X148284048Y-91269342D01*
X148284048Y-91269342D02*
X148236429Y-91078866D01*
X148236429Y-91078866D02*
X148236429Y-90840771D01*
X148236429Y-90840771D02*
X148284048Y-90650295D01*
X148284048Y-90650295D02*
X148331667Y-90555057D01*
X148331667Y-90555057D02*
X148379286Y-90507438D01*
X148379286Y-90507438D02*
X148474524Y-90459819D01*
%TO.C,J9*%
X147331666Y-86654819D02*
X147331666Y-87369104D01*
X147331666Y-87369104D02*
X147284047Y-87511961D01*
X147284047Y-87511961D02*
X147188809Y-87607200D01*
X147188809Y-87607200D02*
X147045952Y-87654819D01*
X147045952Y-87654819D02*
X146950714Y-87654819D01*
X147855476Y-87654819D02*
X148045952Y-87654819D01*
X148045952Y-87654819D02*
X148141190Y-87607200D01*
X148141190Y-87607200D02*
X148188809Y-87559580D01*
X148188809Y-87559580D02*
X148284047Y-87416723D01*
X148284047Y-87416723D02*
X148331666Y-87226247D01*
X148331666Y-87226247D02*
X148331666Y-86845295D01*
X148331666Y-86845295D02*
X148284047Y-86750057D01*
X148284047Y-86750057D02*
X148236428Y-86702438D01*
X148236428Y-86702438D02*
X148141190Y-86654819D01*
X148141190Y-86654819D02*
X147950714Y-86654819D01*
X147950714Y-86654819D02*
X147855476Y-86702438D01*
X147855476Y-86702438D02*
X147807857Y-86750057D01*
X147807857Y-86750057D02*
X147760238Y-86845295D01*
X147760238Y-86845295D02*
X147760238Y-87083390D01*
X147760238Y-87083390D02*
X147807857Y-87178628D01*
X147807857Y-87178628D02*
X147855476Y-87226247D01*
X147855476Y-87226247D02*
X147950714Y-87273866D01*
X147950714Y-87273866D02*
X148141190Y-87273866D01*
X148141190Y-87273866D02*
X148236428Y-87226247D01*
X148236428Y-87226247D02*
X148284047Y-87178628D01*
X148284047Y-87178628D02*
X148331666Y-87083390D01*
%TO.C,J8*%
X154729819Y-145113333D02*
X155444104Y-145113333D01*
X155444104Y-145113333D02*
X155586961Y-145160952D01*
X155586961Y-145160952D02*
X155682200Y-145256190D01*
X155682200Y-145256190D02*
X155729819Y-145399047D01*
X155729819Y-145399047D02*
X155729819Y-145494285D01*
X155158390Y-144494285D02*
X155110771Y-144589523D01*
X155110771Y-144589523D02*
X155063152Y-144637142D01*
X155063152Y-144637142D02*
X154967914Y-144684761D01*
X154967914Y-144684761D02*
X154920295Y-144684761D01*
X154920295Y-144684761D02*
X154825057Y-144637142D01*
X154825057Y-144637142D02*
X154777438Y-144589523D01*
X154777438Y-144589523D02*
X154729819Y-144494285D01*
X154729819Y-144494285D02*
X154729819Y-144303809D01*
X154729819Y-144303809D02*
X154777438Y-144208571D01*
X154777438Y-144208571D02*
X154825057Y-144160952D01*
X154825057Y-144160952D02*
X154920295Y-144113333D01*
X154920295Y-144113333D02*
X154967914Y-144113333D01*
X154967914Y-144113333D02*
X155063152Y-144160952D01*
X155063152Y-144160952D02*
X155110771Y-144208571D01*
X155110771Y-144208571D02*
X155158390Y-144303809D01*
X155158390Y-144303809D02*
X155158390Y-144494285D01*
X155158390Y-144494285D02*
X155206009Y-144589523D01*
X155206009Y-144589523D02*
X155253628Y-144637142D01*
X155253628Y-144637142D02*
X155348866Y-144684761D01*
X155348866Y-144684761D02*
X155539342Y-144684761D01*
X155539342Y-144684761D02*
X155634580Y-144637142D01*
X155634580Y-144637142D02*
X155682200Y-144589523D01*
X155682200Y-144589523D02*
X155729819Y-144494285D01*
X155729819Y-144494285D02*
X155729819Y-144303809D01*
X155729819Y-144303809D02*
X155682200Y-144208571D01*
X155682200Y-144208571D02*
X155634580Y-144160952D01*
X155634580Y-144160952D02*
X155539342Y-144113333D01*
X155539342Y-144113333D02*
X155348866Y-144113333D01*
X155348866Y-144113333D02*
X155253628Y-144160952D01*
X155253628Y-144160952D02*
X155206009Y-144208571D01*
X155206009Y-144208571D02*
X155158390Y-144303809D01*
%TO.C,J7*%
X136641666Y-121374819D02*
X136641666Y-122089104D01*
X136641666Y-122089104D02*
X136594047Y-122231961D01*
X136594047Y-122231961D02*
X136498809Y-122327200D01*
X136498809Y-122327200D02*
X136355952Y-122374819D01*
X136355952Y-122374819D02*
X136260714Y-122374819D01*
X137022619Y-121374819D02*
X137689285Y-121374819D01*
X137689285Y-121374819D02*
X137260714Y-122374819D01*
%TO.C,J6*%
X193136666Y-112449399D02*
X193136666Y-113163684D01*
X193136666Y-113163684D02*
X193089047Y-113306541D01*
X193089047Y-113306541D02*
X192993809Y-113401780D01*
X192993809Y-113401780D02*
X192850952Y-113449399D01*
X192850952Y-113449399D02*
X192755714Y-113449399D01*
X194041428Y-112449399D02*
X193850952Y-112449399D01*
X193850952Y-112449399D02*
X193755714Y-112497018D01*
X193755714Y-112497018D02*
X193708095Y-112544637D01*
X193708095Y-112544637D02*
X193612857Y-112687494D01*
X193612857Y-112687494D02*
X193565238Y-112877970D01*
X193565238Y-112877970D02*
X193565238Y-113258922D01*
X193565238Y-113258922D02*
X193612857Y-113354160D01*
X193612857Y-113354160D02*
X193660476Y-113401780D01*
X193660476Y-113401780D02*
X193755714Y-113449399D01*
X193755714Y-113449399D02*
X193946190Y-113449399D01*
X193946190Y-113449399D02*
X194041428Y-113401780D01*
X194041428Y-113401780D02*
X194089047Y-113354160D01*
X194089047Y-113354160D02*
X194136666Y-113258922D01*
X194136666Y-113258922D02*
X194136666Y-113020827D01*
X194136666Y-113020827D02*
X194089047Y-112925589D01*
X194089047Y-112925589D02*
X194041428Y-112877970D01*
X194041428Y-112877970D02*
X193946190Y-112830351D01*
X193946190Y-112830351D02*
X193755714Y-112830351D01*
X193755714Y-112830351D02*
X193660476Y-112877970D01*
X193660476Y-112877970D02*
X193612857Y-112925589D01*
X193612857Y-112925589D02*
X193565238Y-113020827D01*
%TO.C,J5*%
X147839819Y-114623333D02*
X148554104Y-114623333D01*
X148554104Y-114623333D02*
X148696961Y-114670952D01*
X148696961Y-114670952D02*
X148792200Y-114766190D01*
X148792200Y-114766190D02*
X148839819Y-114909047D01*
X148839819Y-114909047D02*
X148839819Y-115004285D01*
X147839819Y-113670952D02*
X147839819Y-114147142D01*
X147839819Y-114147142D02*
X148316009Y-114194761D01*
X148316009Y-114194761D02*
X148268390Y-114147142D01*
X148268390Y-114147142D02*
X148220771Y-114051904D01*
X148220771Y-114051904D02*
X148220771Y-113813809D01*
X148220771Y-113813809D02*
X148268390Y-113718571D01*
X148268390Y-113718571D02*
X148316009Y-113670952D01*
X148316009Y-113670952D02*
X148411247Y-113623333D01*
X148411247Y-113623333D02*
X148649342Y-113623333D01*
X148649342Y-113623333D02*
X148744580Y-113670952D01*
X148744580Y-113670952D02*
X148792200Y-113718571D01*
X148792200Y-113718571D02*
X148839819Y-113813809D01*
X148839819Y-113813809D02*
X148839819Y-114051904D01*
X148839819Y-114051904D02*
X148792200Y-114147142D01*
X148792200Y-114147142D02*
X148744580Y-114194761D01*
%TO.C,J4*%
X143189819Y-114623333D02*
X143904104Y-114623333D01*
X143904104Y-114623333D02*
X144046961Y-114670952D01*
X144046961Y-114670952D02*
X144142200Y-114766190D01*
X144142200Y-114766190D02*
X144189819Y-114909047D01*
X144189819Y-114909047D02*
X144189819Y-115004285D01*
X143523152Y-113718571D02*
X144189819Y-113718571D01*
X143142200Y-113956666D02*
X143856485Y-114194761D01*
X143856485Y-114194761D02*
X143856485Y-113575714D01*
%TO.C,J3*%
X125341666Y-136344819D02*
X125341666Y-137059104D01*
X125341666Y-137059104D02*
X125294047Y-137201961D01*
X125294047Y-137201961D02*
X125198809Y-137297200D01*
X125198809Y-137297200D02*
X125055952Y-137344819D01*
X125055952Y-137344819D02*
X124960714Y-137344819D01*
X125722619Y-136344819D02*
X126341666Y-136344819D01*
X126341666Y-136344819D02*
X126008333Y-136725771D01*
X126008333Y-136725771D02*
X126151190Y-136725771D01*
X126151190Y-136725771D02*
X126246428Y-136773390D01*
X126246428Y-136773390D02*
X126294047Y-136821009D01*
X126294047Y-136821009D02*
X126341666Y-136916247D01*
X126341666Y-136916247D02*
X126341666Y-137154342D01*
X126341666Y-137154342D02*
X126294047Y-137249580D01*
X126294047Y-137249580D02*
X126246428Y-137297200D01*
X126246428Y-137297200D02*
X126151190Y-137344819D01*
X126151190Y-137344819D02*
X125865476Y-137344819D01*
X125865476Y-137344819D02*
X125770238Y-137297200D01*
X125770238Y-137297200D02*
X125722619Y-137249580D01*
%TO.C,J2*%
X142444166Y-144892319D02*
X142444166Y-145606604D01*
X142444166Y-145606604D02*
X142396547Y-145749461D01*
X142396547Y-145749461D02*
X142301309Y-145844700D01*
X142301309Y-145844700D02*
X142158452Y-145892319D01*
X142158452Y-145892319D02*
X142063214Y-145892319D01*
X142872738Y-144987557D02*
X142920357Y-144939938D01*
X142920357Y-144939938D02*
X143015595Y-144892319D01*
X143015595Y-144892319D02*
X143253690Y-144892319D01*
X143253690Y-144892319D02*
X143348928Y-144939938D01*
X143348928Y-144939938D02*
X143396547Y-144987557D01*
X143396547Y-144987557D02*
X143444166Y-145082795D01*
X143444166Y-145082795D02*
X143444166Y-145178033D01*
X143444166Y-145178033D02*
X143396547Y-145320890D01*
X143396547Y-145320890D02*
X142825119Y-145892319D01*
X142825119Y-145892319D02*
X143444166Y-145892319D01*
%TO.C,J1*%
X122106666Y-138934819D02*
X122106666Y-139649104D01*
X122106666Y-139649104D02*
X122059047Y-139791961D01*
X122059047Y-139791961D02*
X121963809Y-139887200D01*
X121963809Y-139887200D02*
X121820952Y-139934819D01*
X121820952Y-139934819D02*
X121725714Y-139934819D01*
X123106666Y-139934819D02*
X122535238Y-139934819D01*
X122820952Y-139934819D02*
X122820952Y-138934819D01*
X122820952Y-138934819D02*
X122725714Y-139077676D01*
X122725714Y-139077676D02*
X122630476Y-139172914D01*
X122630476Y-139172914D02*
X122535238Y-139220533D01*
%TO.C,BT1*%
X95384286Y-134576009D02*
X95527143Y-134623628D01*
X95527143Y-134623628D02*
X95574762Y-134671247D01*
X95574762Y-134671247D02*
X95622381Y-134766485D01*
X95622381Y-134766485D02*
X95622381Y-134909342D01*
X95622381Y-134909342D02*
X95574762Y-135004580D01*
X95574762Y-135004580D02*
X95527143Y-135052200D01*
X95527143Y-135052200D02*
X95431905Y-135099819D01*
X95431905Y-135099819D02*
X95050953Y-135099819D01*
X95050953Y-135099819D02*
X95050953Y-134099819D01*
X95050953Y-134099819D02*
X95384286Y-134099819D01*
X95384286Y-134099819D02*
X95479524Y-134147438D01*
X95479524Y-134147438D02*
X95527143Y-134195057D01*
X95527143Y-134195057D02*
X95574762Y-134290295D01*
X95574762Y-134290295D02*
X95574762Y-134385533D01*
X95574762Y-134385533D02*
X95527143Y-134480771D01*
X95527143Y-134480771D02*
X95479524Y-134528390D01*
X95479524Y-134528390D02*
X95384286Y-134576009D01*
X95384286Y-134576009D02*
X95050953Y-134576009D01*
X95908096Y-134099819D02*
X96479524Y-134099819D01*
X96193810Y-135099819D02*
X96193810Y-134099819D01*
X97336667Y-135099819D02*
X96765239Y-135099819D01*
X97050953Y-135099819D02*
X97050953Y-134099819D01*
X97050953Y-134099819D02*
X96955715Y-134242676D01*
X96955715Y-134242676D02*
X96860477Y-134337914D01*
X96860477Y-134337914D02*
X96765239Y-134385533D01*
X91598572Y-130259700D02*
X92741430Y-130259700D01*
X92170001Y-130831128D02*
X92170001Y-129688271D01*
D11*
%TO.C,U5*%
X145945000Y-135190000D02*
X145195000Y-135190000D01*
X145945000Y-128970000D02*
X145195000Y-128970000D01*
X150665000Y-135190000D02*
X151415000Y-135190000D01*
X145195000Y-135190000D02*
X145195000Y-134440000D01*
X150665000Y-128970000D02*
X151415000Y-128970000D01*
X151415000Y-135190000D02*
X151415000Y-134440000D01*
X151415000Y-128970000D02*
X151415000Y-129720000D01*
%TO.C,U4*%
X123665000Y-97350000D02*
X123665000Y-99030000D01*
X136085000Y-88980000D02*
X136085000Y-89430000D01*
X136085000Y-97350000D02*
X136085000Y-99030000D01*
X122975000Y-89430000D02*
X123665000Y-89430000D01*
X123665000Y-88980000D02*
X123665000Y-89430000D01*
X123665000Y-88980000D02*
X136085000Y-88980000D01*
X123665000Y-104750000D02*
X123665000Y-105200000D01*
X123665000Y-105200000D02*
X136085000Y-105200000D01*
X136085000Y-104750000D02*
X136085000Y-105190000D01*
%TO.C,U3*%
X122960000Y-58095000D02*
X123960000Y-58095000D01*
X122960000Y-57315000D02*
X122960000Y-58095000D01*
X122960000Y-38770000D02*
X122580000Y-38770000D01*
X141200000Y-58095000D02*
X140200000Y-58095000D01*
X141200000Y-57315000D02*
X141200000Y-58095000D01*
X122960000Y-32355000D02*
X122960000Y-38770000D01*
X122960000Y-32355000D02*
X141200000Y-32355000D01*
X141200000Y-32355000D02*
X141200000Y-38770000D01*
%TO.C,J42*%
X94710000Y-52580000D02*
X92050000Y-52580000D01*
X94710000Y-55240000D02*
X94710000Y-52580000D01*
X92050000Y-53750000D02*
X86050000Y-53750000D01*
X86050000Y-53530000D02*
X92050000Y-53530000D01*
X95040000Y-54290000D02*
X94710000Y-54290000D01*
X92050000Y-53990000D02*
X86050000Y-53990000D01*
X92050000Y-54230000D02*
X86050000Y-54230000D01*
X92050000Y-54290000D02*
X86050000Y-54290000D01*
X92050000Y-54110000D02*
X86050000Y-54110000D01*
X92050000Y-53630000D02*
X86050000Y-53630000D01*
X86050000Y-54290000D02*
X86050000Y-53530000D01*
X92050000Y-52580000D02*
X92050000Y-55240000D01*
X95040000Y-53530000D02*
X94710000Y-53530000D01*
X97420000Y-53910000D02*
X97420000Y-55180000D01*
X97420000Y-55180000D02*
X96150000Y-55180000D01*
X92050000Y-55240000D02*
X94710000Y-55240000D01*
X92050000Y-53870000D02*
X86050000Y-53870000D01*
%TO.C,J41*%
X94710000Y-47500000D02*
X92050000Y-47500000D01*
X94710000Y-50160000D02*
X94710000Y-47500000D01*
X92050000Y-48670000D02*
X86050000Y-48670000D01*
X86050000Y-48450000D02*
X92050000Y-48450000D01*
X95040000Y-49210000D02*
X94710000Y-49210000D01*
X92050000Y-48910000D02*
X86050000Y-48910000D01*
X92050000Y-49150000D02*
X86050000Y-49150000D01*
X92050000Y-49210000D02*
X86050000Y-49210000D01*
X92050000Y-49030000D02*
X86050000Y-49030000D01*
X92050000Y-48550000D02*
X86050000Y-48550000D01*
X86050000Y-49210000D02*
X86050000Y-48450000D01*
X92050000Y-47500000D02*
X92050000Y-50160000D01*
X95040000Y-48450000D02*
X94710000Y-48450000D01*
X97420000Y-48830000D02*
X97420000Y-50100000D01*
X97420000Y-50100000D02*
X96150000Y-50100000D01*
X92050000Y-50160000D02*
X94710000Y-50160000D01*
X92050000Y-48790000D02*
X86050000Y-48790000D01*
%TO.C,J40*%
X94710000Y-62740000D02*
X92050000Y-62740000D01*
X94710000Y-65400000D02*
X94710000Y-62740000D01*
X92050000Y-63910000D02*
X86050000Y-63910000D01*
X86050000Y-63690000D02*
X92050000Y-63690000D01*
X95040000Y-64450000D02*
X94710000Y-64450000D01*
X92050000Y-64150000D02*
X86050000Y-64150000D01*
X92050000Y-64390000D02*
X86050000Y-64390000D01*
X92050000Y-64450000D02*
X86050000Y-64450000D01*
X92050000Y-64270000D02*
X86050000Y-64270000D01*
X92050000Y-63790000D02*
X86050000Y-63790000D01*
X86050000Y-64450000D02*
X86050000Y-63690000D01*
X92050000Y-62740000D02*
X92050000Y-65400000D01*
X95040000Y-63690000D02*
X94710000Y-63690000D01*
X97420000Y-64070000D02*
X97420000Y-65340000D01*
X97420000Y-65340000D02*
X96150000Y-65340000D01*
X92050000Y-65400000D02*
X94710000Y-65400000D01*
X92050000Y-64030000D02*
X86050000Y-64030000D01*
%TO.C,J39*%
X94710000Y-57660000D02*
X92050000Y-57660000D01*
X94710000Y-60320000D02*
X94710000Y-57660000D01*
X92050000Y-58830000D02*
X86050000Y-58830000D01*
X86050000Y-58610000D02*
X92050000Y-58610000D01*
X95040000Y-59370000D02*
X94710000Y-59370000D01*
X92050000Y-59070000D02*
X86050000Y-59070000D01*
X92050000Y-59310000D02*
X86050000Y-59310000D01*
X92050000Y-59370000D02*
X86050000Y-59370000D01*
X92050000Y-59190000D02*
X86050000Y-59190000D01*
X92050000Y-58710000D02*
X86050000Y-58710000D01*
X86050000Y-59370000D02*
X86050000Y-58610000D01*
X92050000Y-57660000D02*
X92050000Y-60320000D01*
X95040000Y-58610000D02*
X94710000Y-58610000D01*
X97420000Y-58990000D02*
X97420000Y-60260000D01*
X97420000Y-60260000D02*
X96150000Y-60260000D01*
X92050000Y-60320000D02*
X94710000Y-60320000D01*
X92050000Y-58950000D02*
X86050000Y-58950000D01*
%TO.C,J38*%
X94710000Y-77980000D02*
X92050000Y-77980000D01*
X94710000Y-80640000D02*
X94710000Y-77980000D01*
X92050000Y-79150000D02*
X86050000Y-79150000D01*
X86050000Y-78930000D02*
X92050000Y-78930000D01*
X95040000Y-79690000D02*
X94710000Y-79690000D01*
X92050000Y-79390000D02*
X86050000Y-79390000D01*
X92050000Y-79630000D02*
X86050000Y-79630000D01*
X92050000Y-79690000D02*
X86050000Y-79690000D01*
X92050000Y-79510000D02*
X86050000Y-79510000D01*
X92050000Y-79030000D02*
X86050000Y-79030000D01*
X86050000Y-79690000D02*
X86050000Y-78930000D01*
X92050000Y-77980000D02*
X92050000Y-80640000D01*
X95040000Y-78930000D02*
X94710000Y-78930000D01*
X97420000Y-79310000D02*
X97420000Y-80580000D01*
X97420000Y-80580000D02*
X96150000Y-80580000D01*
X92050000Y-80640000D02*
X94710000Y-80640000D01*
X92050000Y-79270000D02*
X86050000Y-79270000D01*
%TO.C,J37*%
X94710000Y-72900000D02*
X92050000Y-72900000D01*
X94710000Y-75560000D02*
X94710000Y-72900000D01*
X92050000Y-74070000D02*
X86050000Y-74070000D01*
X86050000Y-73850000D02*
X92050000Y-73850000D01*
X95040000Y-74610000D02*
X94710000Y-74610000D01*
X92050000Y-74310000D02*
X86050000Y-74310000D01*
X92050000Y-74550000D02*
X86050000Y-74550000D01*
X92050000Y-74610000D02*
X86050000Y-74610000D01*
X92050000Y-74430000D02*
X86050000Y-74430000D01*
X92050000Y-73950000D02*
X86050000Y-73950000D01*
X86050000Y-74610000D02*
X86050000Y-73850000D01*
X92050000Y-72900000D02*
X92050000Y-75560000D01*
X95040000Y-73850000D02*
X94710000Y-73850000D01*
X97420000Y-74230000D02*
X97420000Y-75500000D01*
X97420000Y-75500000D02*
X96150000Y-75500000D01*
X92050000Y-75560000D02*
X94710000Y-75560000D01*
X92050000Y-74190000D02*
X86050000Y-74190000D01*
%TO.C,J36*%
X94710000Y-67820000D02*
X92050000Y-67820000D01*
X94710000Y-70480000D02*
X94710000Y-67820000D01*
X92050000Y-68990000D02*
X86050000Y-68990000D01*
X86050000Y-68770000D02*
X92050000Y-68770000D01*
X95040000Y-69530000D02*
X94710000Y-69530000D01*
X92050000Y-69230000D02*
X86050000Y-69230000D01*
X92050000Y-69470000D02*
X86050000Y-69470000D01*
X92050000Y-69530000D02*
X86050000Y-69530000D01*
X92050000Y-69350000D02*
X86050000Y-69350000D01*
X92050000Y-68870000D02*
X86050000Y-68870000D01*
X86050000Y-69530000D02*
X86050000Y-68770000D01*
X92050000Y-67820000D02*
X92050000Y-70480000D01*
X95040000Y-68770000D02*
X94710000Y-68770000D01*
X97420000Y-69150000D02*
X97420000Y-70420000D01*
X97420000Y-70420000D02*
X96150000Y-70420000D01*
X92050000Y-70480000D02*
X94710000Y-70480000D01*
X92050000Y-69110000D02*
X86050000Y-69110000D01*
%TO.C,J35*%
X170120000Y-37460000D02*
X172780000Y-37460000D01*
X170120000Y-34800000D02*
X170120000Y-37460000D01*
X172780000Y-36290000D02*
X178780000Y-36290000D01*
X178780000Y-36510000D02*
X172780000Y-36510000D01*
X169790000Y-35750000D02*
X170120000Y-35750000D01*
X172780000Y-36050000D02*
X178780000Y-36050000D01*
X172780000Y-35810000D02*
X178780000Y-35810000D01*
X172780000Y-35750000D02*
X178780000Y-35750000D01*
X172780000Y-35930000D02*
X178780000Y-35930000D01*
X172780000Y-36410000D02*
X178780000Y-36410000D01*
X178780000Y-35750000D02*
X178780000Y-36510000D01*
X172780000Y-37460000D02*
X172780000Y-34800000D01*
X169790000Y-36510000D02*
X170120000Y-36510000D01*
X167410000Y-36130000D02*
X167410000Y-34860000D01*
X167410000Y-34860000D02*
X168680000Y-34860000D01*
X172780000Y-34800000D02*
X170120000Y-34800000D01*
X172780000Y-36170000D02*
X178780000Y-36170000D01*
%TO.C,J34*%
X170120000Y-42540000D02*
X172780000Y-42540000D01*
X170120000Y-39880000D02*
X170120000Y-42540000D01*
X172780000Y-41370000D02*
X178780000Y-41370000D01*
X178780000Y-41590000D02*
X172780000Y-41590000D01*
X169790000Y-40830000D02*
X170120000Y-40830000D01*
X172780000Y-41130000D02*
X178780000Y-41130000D01*
X172780000Y-40890000D02*
X178780000Y-40890000D01*
X172780000Y-40830000D02*
X178780000Y-40830000D01*
X172780000Y-41010000D02*
X178780000Y-41010000D01*
X172780000Y-41490000D02*
X178780000Y-41490000D01*
X178780000Y-40830000D02*
X178780000Y-41590000D01*
X172780000Y-42540000D02*
X172780000Y-39880000D01*
X169790000Y-41590000D02*
X170120000Y-41590000D01*
X167410000Y-41210000D02*
X167410000Y-39940000D01*
X167410000Y-39940000D02*
X168680000Y-39940000D01*
X172780000Y-39880000D02*
X170120000Y-39880000D01*
X172780000Y-41250000D02*
X178780000Y-41250000D01*
%TO.C,J33*%
X170120000Y-57780000D02*
X172780000Y-57780000D01*
X170120000Y-55120000D02*
X170120000Y-57780000D01*
X172780000Y-56610000D02*
X178780000Y-56610000D01*
X178780000Y-56830000D02*
X172780000Y-56830000D01*
X169790000Y-56070000D02*
X170120000Y-56070000D01*
X172780000Y-56370000D02*
X178780000Y-56370000D01*
X172780000Y-56130000D02*
X178780000Y-56130000D01*
X172780000Y-56070000D02*
X178780000Y-56070000D01*
X172780000Y-56250000D02*
X178780000Y-56250000D01*
X172780000Y-56730000D02*
X178780000Y-56730000D01*
X178780000Y-56070000D02*
X178780000Y-56830000D01*
X172780000Y-57780000D02*
X172780000Y-55120000D01*
X169790000Y-56830000D02*
X170120000Y-56830000D01*
X167410000Y-56450000D02*
X167410000Y-55180000D01*
X167410000Y-55180000D02*
X168680000Y-55180000D01*
X172780000Y-55120000D02*
X170120000Y-55120000D01*
X172780000Y-56490000D02*
X178780000Y-56490000D01*
%TO.C,J32*%
X170120000Y-62860000D02*
X172780000Y-62860000D01*
X170120000Y-60200000D02*
X170120000Y-62860000D01*
X172780000Y-61690000D02*
X178780000Y-61690000D01*
X178780000Y-61910000D02*
X172780000Y-61910000D01*
X169790000Y-61150000D02*
X170120000Y-61150000D01*
X172780000Y-61450000D02*
X178780000Y-61450000D01*
X172780000Y-61210000D02*
X178780000Y-61210000D01*
X172780000Y-61150000D02*
X178780000Y-61150000D01*
X172780000Y-61330000D02*
X178780000Y-61330000D01*
X172780000Y-61810000D02*
X178780000Y-61810000D01*
X178780000Y-61150000D02*
X178780000Y-61910000D01*
X172780000Y-62860000D02*
X172780000Y-60200000D01*
X169790000Y-61910000D02*
X170120000Y-61910000D01*
X167410000Y-61530000D02*
X167410000Y-60260000D01*
X167410000Y-60260000D02*
X168680000Y-60260000D01*
X172780000Y-60200000D02*
X170120000Y-60200000D01*
X172780000Y-61570000D02*
X178780000Y-61570000D01*
%TO.C,J31*%
X170120000Y-67940000D02*
X172780000Y-67940000D01*
X170120000Y-65280000D02*
X170120000Y-67940000D01*
X172780000Y-66770000D02*
X178780000Y-66770000D01*
X178780000Y-66990000D02*
X172780000Y-66990000D01*
X169790000Y-66230000D02*
X170120000Y-66230000D01*
X172780000Y-66530000D02*
X178780000Y-66530000D01*
X172780000Y-66290000D02*
X178780000Y-66290000D01*
X172780000Y-66230000D02*
X178780000Y-66230000D01*
X172780000Y-66410000D02*
X178780000Y-66410000D01*
X172780000Y-66890000D02*
X178780000Y-66890000D01*
X178780000Y-66230000D02*
X178780000Y-66990000D01*
X172780000Y-67940000D02*
X172780000Y-65280000D01*
X169790000Y-66990000D02*
X170120000Y-66990000D01*
X167410000Y-66610000D02*
X167410000Y-65340000D01*
X167410000Y-65340000D02*
X168680000Y-65340000D01*
X172780000Y-65280000D02*
X170120000Y-65280000D01*
X172780000Y-66650000D02*
X178780000Y-66650000D01*
%TO.C,J30*%
X170120000Y-78100000D02*
X172780000Y-78100000D01*
X170120000Y-75440000D02*
X170120000Y-78100000D01*
X172780000Y-76930000D02*
X178780000Y-76930000D01*
X178780000Y-77150000D02*
X172780000Y-77150000D01*
X169790000Y-76390000D02*
X170120000Y-76390000D01*
X172780000Y-76690000D02*
X178780000Y-76690000D01*
X172780000Y-76450000D02*
X178780000Y-76450000D01*
X172780000Y-76390000D02*
X178780000Y-76390000D01*
X172780000Y-76570000D02*
X178780000Y-76570000D01*
X172780000Y-77050000D02*
X178780000Y-77050000D01*
X178780000Y-76390000D02*
X178780000Y-77150000D01*
X172780000Y-78100000D02*
X172780000Y-75440000D01*
X169790000Y-77150000D02*
X170120000Y-77150000D01*
X167410000Y-76770000D02*
X167410000Y-75500000D01*
X167410000Y-75500000D02*
X168680000Y-75500000D01*
X172780000Y-75440000D02*
X170120000Y-75440000D01*
X172780000Y-76810000D02*
X178780000Y-76810000D01*
%TO.C,J29*%
X170120000Y-83180000D02*
X172780000Y-83180000D01*
X170120000Y-80520000D02*
X170120000Y-83180000D01*
X172780000Y-82010000D02*
X178780000Y-82010000D01*
X178780000Y-82230000D02*
X172780000Y-82230000D01*
X169790000Y-81470000D02*
X170120000Y-81470000D01*
X172780000Y-81770000D02*
X178780000Y-81770000D01*
X172780000Y-81530000D02*
X178780000Y-81530000D01*
X172780000Y-81470000D02*
X178780000Y-81470000D01*
X172780000Y-81650000D02*
X178780000Y-81650000D01*
X172780000Y-82130000D02*
X178780000Y-82130000D01*
X178780000Y-81470000D02*
X178780000Y-82230000D01*
X172780000Y-83180000D02*
X172780000Y-80520000D01*
X169790000Y-82230000D02*
X170120000Y-82230000D01*
X167410000Y-81850000D02*
X167410000Y-80580000D01*
X167410000Y-80580000D02*
X168680000Y-80580000D01*
X172780000Y-80520000D02*
X170120000Y-80520000D01*
X172780000Y-81890000D02*
X178780000Y-81890000D01*
%TO.C,J28*%
X130750000Y-69434580D02*
X130750000Y-72094580D01*
X133410000Y-69434580D02*
X130750000Y-69434580D01*
X131920000Y-72094580D02*
X131920000Y-78094580D01*
X131700000Y-78094580D02*
X131700000Y-72094580D01*
X132460000Y-69104580D02*
X132460000Y-69434580D01*
X132160000Y-72094580D02*
X132160000Y-78094580D01*
X132400000Y-72094580D02*
X132400000Y-78094580D01*
X132460000Y-72094580D02*
X132460000Y-78094580D01*
X132280000Y-72094580D02*
X132280000Y-78094580D01*
X131800000Y-72094580D02*
X131800000Y-78094580D01*
X132460000Y-78094580D02*
X131700000Y-78094580D01*
X130750000Y-72094580D02*
X133410000Y-72094580D01*
X131700000Y-69104580D02*
X131700000Y-69434580D01*
X132080000Y-66724580D02*
X133350000Y-66724580D01*
X133350000Y-66724580D02*
X133350000Y-67994580D01*
X133410000Y-72094580D02*
X133410000Y-69434580D01*
X132040000Y-72094580D02*
X132040000Y-78094580D01*
%TO.C,J27*%
X94710000Y-83060000D02*
X92050000Y-83060000D01*
X94710000Y-85720000D02*
X94710000Y-83060000D01*
X92050000Y-84230000D02*
X86050000Y-84230000D01*
X86050000Y-84010000D02*
X92050000Y-84010000D01*
X95040000Y-84770000D02*
X94710000Y-84770000D01*
X92050000Y-84470000D02*
X86050000Y-84470000D01*
X92050000Y-84710000D02*
X86050000Y-84710000D01*
X92050000Y-84770000D02*
X86050000Y-84770000D01*
X92050000Y-84590000D02*
X86050000Y-84590000D01*
X92050000Y-84110000D02*
X86050000Y-84110000D01*
X86050000Y-84770000D02*
X86050000Y-84010000D01*
X92050000Y-83060000D02*
X92050000Y-85720000D01*
X95040000Y-84010000D02*
X94710000Y-84010000D01*
X97420000Y-84390000D02*
X97420000Y-85660000D01*
X97420000Y-85660000D02*
X96150000Y-85660000D01*
X92050000Y-85720000D02*
X94710000Y-85720000D01*
X92050000Y-84350000D02*
X86050000Y-84350000D01*
%TO.C,J26*%
X125955000Y-69434580D02*
X125955000Y-72094580D01*
X128615000Y-69434580D02*
X125955000Y-69434580D01*
X127125000Y-72094580D02*
X127125000Y-78094580D01*
X126905000Y-78094580D02*
X126905000Y-72094580D01*
X127665000Y-69104580D02*
X127665000Y-69434580D01*
X127365000Y-72094580D02*
X127365000Y-78094580D01*
X127605000Y-72094580D02*
X127605000Y-78094580D01*
X127665000Y-72094580D02*
X127665000Y-78094580D01*
X127485000Y-72094580D02*
X127485000Y-78094580D01*
X127005000Y-72094580D02*
X127005000Y-78094580D01*
X127665000Y-78094580D02*
X126905000Y-78094580D01*
X125955000Y-72094580D02*
X128615000Y-72094580D01*
X126905000Y-69104580D02*
X126905000Y-69434580D01*
X127285000Y-66724580D02*
X128555000Y-66724580D01*
X128555000Y-66724580D02*
X128555000Y-67994580D01*
X128615000Y-72094580D02*
X128615000Y-69434580D01*
X127245000Y-72094580D02*
X127245000Y-78094580D01*
%TO.C,J25*%
X94710000Y-88140000D02*
X92050000Y-88140000D01*
X94710000Y-90800000D02*
X94710000Y-88140000D01*
X92050000Y-89310000D02*
X86050000Y-89310000D01*
X86050000Y-89090000D02*
X92050000Y-89090000D01*
X95040000Y-89850000D02*
X94710000Y-89850000D01*
X92050000Y-89550000D02*
X86050000Y-89550000D01*
X92050000Y-89790000D02*
X86050000Y-89790000D01*
X92050000Y-89850000D02*
X86050000Y-89850000D01*
X92050000Y-89670000D02*
X86050000Y-89670000D01*
X92050000Y-89190000D02*
X86050000Y-89190000D01*
X86050000Y-89850000D02*
X86050000Y-89090000D01*
X92050000Y-88140000D02*
X92050000Y-90800000D01*
X95040000Y-89090000D02*
X94710000Y-89090000D01*
X97420000Y-89470000D02*
X97420000Y-90740000D01*
X97420000Y-90740000D02*
X96150000Y-90740000D01*
X92050000Y-90800000D02*
X94710000Y-90800000D01*
X92050000Y-89430000D02*
X86050000Y-89430000D01*
%TO.C,J24*%
X170120000Y-73020000D02*
X172780000Y-73020000D01*
X170120000Y-70360000D02*
X170120000Y-73020000D01*
X172780000Y-71850000D02*
X178780000Y-71850000D01*
X178780000Y-72070000D02*
X172780000Y-72070000D01*
X169790000Y-71310000D02*
X170120000Y-71310000D01*
X172780000Y-71610000D02*
X178780000Y-71610000D01*
X172780000Y-71370000D02*
X178780000Y-71370000D01*
X172780000Y-71310000D02*
X178780000Y-71310000D01*
X172780000Y-71490000D02*
X178780000Y-71490000D01*
X172780000Y-71970000D02*
X178780000Y-71970000D01*
X178780000Y-71310000D02*
X178780000Y-72070000D01*
X172780000Y-73020000D02*
X172780000Y-70360000D01*
X169790000Y-72070000D02*
X170120000Y-72070000D01*
X167410000Y-71690000D02*
X167410000Y-70420000D01*
X167410000Y-70420000D02*
X168680000Y-70420000D01*
X172780000Y-70360000D02*
X170120000Y-70360000D01*
X172780000Y-71730000D02*
X178780000Y-71730000D01*
%TO.C,J23*%
X170120000Y-88260000D02*
X172780000Y-88260000D01*
X170120000Y-85600000D02*
X170120000Y-88260000D01*
X172780000Y-87090000D02*
X178780000Y-87090000D01*
X178780000Y-87310000D02*
X172780000Y-87310000D01*
X169790000Y-86550000D02*
X170120000Y-86550000D01*
X172780000Y-86850000D02*
X178780000Y-86850000D01*
X172780000Y-86610000D02*
X178780000Y-86610000D01*
X172780000Y-86550000D02*
X178780000Y-86550000D01*
X172780000Y-86730000D02*
X178780000Y-86730000D01*
X172780000Y-87210000D02*
X178780000Y-87210000D01*
X178780000Y-86550000D02*
X178780000Y-87310000D01*
X172780000Y-88260000D02*
X172780000Y-85600000D01*
X169790000Y-87310000D02*
X170120000Y-87310000D01*
X167410000Y-86930000D02*
X167410000Y-85660000D01*
X167410000Y-85660000D02*
X168680000Y-85660000D01*
X172780000Y-85600000D02*
X170120000Y-85600000D01*
X172780000Y-86970000D02*
X178780000Y-86970000D01*
%TO.C,J22*%
X170120000Y-52700000D02*
X172780000Y-52700000D01*
X170120000Y-50040000D02*
X170120000Y-52700000D01*
X172780000Y-51530000D02*
X178780000Y-51530000D01*
X178780000Y-51750000D02*
X172780000Y-51750000D01*
X169790000Y-50990000D02*
X170120000Y-50990000D01*
X172780000Y-51290000D02*
X178780000Y-51290000D01*
X172780000Y-51050000D02*
X178780000Y-51050000D01*
X172780000Y-50990000D02*
X178780000Y-50990000D01*
X172780000Y-51170000D02*
X178780000Y-51170000D01*
X172780000Y-51650000D02*
X178780000Y-51650000D01*
X178780000Y-50990000D02*
X178780000Y-51750000D01*
X172780000Y-52700000D02*
X172780000Y-50040000D01*
X169790000Y-51750000D02*
X170120000Y-51750000D01*
X167410000Y-51370000D02*
X167410000Y-50100000D01*
X167410000Y-50100000D02*
X168680000Y-50100000D01*
X172780000Y-50040000D02*
X170120000Y-50040000D01*
X172780000Y-51410000D02*
X178780000Y-51410000D01*
%TO.C,J21*%
X135830000Y-69434580D02*
X135830000Y-72094580D01*
X138490000Y-69434580D02*
X135830000Y-69434580D01*
X137000000Y-72094580D02*
X137000000Y-78094580D01*
X136780000Y-78094580D02*
X136780000Y-72094580D01*
X137540000Y-69104580D02*
X137540000Y-69434580D01*
X137240000Y-72094580D02*
X137240000Y-78094580D01*
X137480000Y-72094580D02*
X137480000Y-78094580D01*
X137540000Y-72094580D02*
X137540000Y-78094580D01*
X137360000Y-72094580D02*
X137360000Y-78094580D01*
X136880000Y-72094580D02*
X136880000Y-78094580D01*
X137540000Y-78094580D02*
X136780000Y-78094580D01*
X135830000Y-72094580D02*
X138490000Y-72094580D01*
X136780000Y-69104580D02*
X136780000Y-69434580D01*
X137160000Y-66724580D02*
X138430000Y-66724580D01*
X138430000Y-66724580D02*
X138430000Y-67994580D01*
X138490000Y-72094580D02*
X138490000Y-69434580D01*
X137120000Y-72094580D02*
X137120000Y-78094580D01*
%TO.C,J20*%
X170120000Y-47620000D02*
X172780000Y-47620000D01*
X170120000Y-44960000D02*
X170120000Y-47620000D01*
X172780000Y-46450000D02*
X178780000Y-46450000D01*
X178780000Y-46670000D02*
X172780000Y-46670000D01*
X169790000Y-45910000D02*
X170120000Y-45910000D01*
X172780000Y-46210000D02*
X178780000Y-46210000D01*
X172780000Y-45970000D02*
X178780000Y-45970000D01*
X172780000Y-45910000D02*
X178780000Y-45910000D01*
X172780000Y-46090000D02*
X178780000Y-46090000D01*
X172780000Y-46570000D02*
X178780000Y-46570000D01*
X178780000Y-45910000D02*
X178780000Y-46670000D01*
X172780000Y-47620000D02*
X172780000Y-44960000D01*
X169790000Y-46670000D02*
X170120000Y-46670000D01*
X167410000Y-46290000D02*
X167410000Y-45020000D01*
X167410000Y-45020000D02*
X168680000Y-45020000D01*
X172780000Y-44960000D02*
X170120000Y-44960000D01*
X172780000Y-46330000D02*
X178780000Y-46330000D01*
%TO.C,J19*%
X170242500Y-93240000D02*
X172902500Y-93240000D01*
X170242500Y-90580000D02*
X170242500Y-93240000D01*
X172902500Y-92070000D02*
X178902500Y-92070000D01*
X178902500Y-92290000D02*
X172902500Y-92290000D01*
X169912500Y-91530000D02*
X170242500Y-91530000D01*
X172902500Y-91830000D02*
X178902500Y-91830000D01*
X172902500Y-91590000D02*
X178902500Y-91590000D01*
X172902500Y-91530000D02*
X178902500Y-91530000D01*
X172902500Y-91710000D02*
X178902500Y-91710000D01*
X172902500Y-92190000D02*
X178902500Y-92190000D01*
X178902500Y-91530000D02*
X178902500Y-92290000D01*
X172902500Y-93240000D02*
X172902500Y-90580000D01*
X169912500Y-92290000D02*
X170242500Y-92290000D01*
X167532500Y-91910000D02*
X167532500Y-90640000D01*
X167532500Y-90640000D02*
X168802500Y-90640000D01*
X172902500Y-90580000D02*
X170242500Y-90580000D01*
X172902500Y-91950000D02*
X178902500Y-91950000D01*
%TO.C,J18*%
X168040000Y-125790000D02*
X170700000Y-125790000D01*
X168040000Y-123130000D02*
X168040000Y-125790000D01*
X170700000Y-124620000D02*
X176700000Y-124620000D01*
X176700000Y-124840000D02*
X170700000Y-124840000D01*
X167710000Y-124080000D02*
X168040000Y-124080000D01*
X170700000Y-124380000D02*
X176700000Y-124380000D01*
X170700000Y-124140000D02*
X176700000Y-124140000D01*
X170700000Y-124080000D02*
X176700000Y-124080000D01*
X170700000Y-124260000D02*
X176700000Y-124260000D01*
X170700000Y-124740000D02*
X176700000Y-124740000D01*
X176700000Y-124080000D02*
X176700000Y-124840000D01*
X170700000Y-125790000D02*
X170700000Y-123130000D01*
X167710000Y-124840000D02*
X168040000Y-124840000D01*
X165330000Y-124460000D02*
X165330000Y-123190000D01*
X165330000Y-123190000D02*
X166600000Y-123190000D01*
X170700000Y-123130000D02*
X168040000Y-123130000D01*
X170700000Y-124500000D02*
X176700000Y-124500000D01*
%TO.C,J17*%
X168040000Y-130870000D02*
X170700000Y-130870000D01*
X168040000Y-128210000D02*
X168040000Y-130870000D01*
X170700000Y-129700000D02*
X176700000Y-129700000D01*
X176700000Y-129920000D02*
X170700000Y-129920000D01*
X167710000Y-129160000D02*
X168040000Y-129160000D01*
X170700000Y-129460000D02*
X176700000Y-129460000D01*
X170700000Y-129220000D02*
X176700000Y-129220000D01*
X170700000Y-129160000D02*
X176700000Y-129160000D01*
X170700000Y-129340000D02*
X176700000Y-129340000D01*
X170700000Y-129820000D02*
X176700000Y-129820000D01*
X176700000Y-129160000D02*
X176700000Y-129920000D01*
X170700000Y-130870000D02*
X170700000Y-128210000D01*
X167710000Y-129920000D02*
X168040000Y-129920000D01*
X165330000Y-129540000D02*
X165330000Y-128270000D01*
X165330000Y-128270000D02*
X166600000Y-128270000D01*
X170700000Y-128210000D02*
X168040000Y-128210000D01*
X170700000Y-129580000D02*
X176700000Y-129580000D01*
%TO.C,J16*%
X168040000Y-135950000D02*
X170700000Y-135950000D01*
X168040000Y-133290000D02*
X168040000Y-135950000D01*
X170700000Y-134780000D02*
X176700000Y-134780000D01*
X176700000Y-135000000D02*
X170700000Y-135000000D01*
X167710000Y-134240000D02*
X168040000Y-134240000D01*
X170700000Y-134540000D02*
X176700000Y-134540000D01*
X170700000Y-134300000D02*
X176700000Y-134300000D01*
X170700000Y-134240000D02*
X176700000Y-134240000D01*
X170700000Y-134420000D02*
X176700000Y-134420000D01*
X170700000Y-134900000D02*
X176700000Y-134900000D01*
X176700000Y-134240000D02*
X176700000Y-135000000D01*
X170700000Y-135950000D02*
X170700000Y-133290000D01*
X167710000Y-135000000D02*
X168040000Y-135000000D01*
X165330000Y-134620000D02*
X165330000Y-133350000D01*
X165330000Y-133350000D02*
X166600000Y-133350000D01*
X170700000Y-133290000D02*
X168040000Y-133290000D01*
X170700000Y-134660000D02*
X176700000Y-134660000D01*
%TO.C,J15*%
X168040000Y-141030000D02*
X170700000Y-141030000D01*
X168040000Y-138370000D02*
X168040000Y-141030000D01*
X170700000Y-139860000D02*
X176700000Y-139860000D01*
X176700000Y-140080000D02*
X170700000Y-140080000D01*
X167710000Y-139320000D02*
X168040000Y-139320000D01*
X170700000Y-139620000D02*
X176700000Y-139620000D01*
X170700000Y-139380000D02*
X176700000Y-139380000D01*
X170700000Y-139320000D02*
X176700000Y-139320000D01*
X170700000Y-139500000D02*
X176700000Y-139500000D01*
X170700000Y-139980000D02*
X176700000Y-139980000D01*
X176700000Y-139320000D02*
X176700000Y-140080000D01*
X170700000Y-141030000D02*
X170700000Y-138370000D01*
X167710000Y-140080000D02*
X168040000Y-140080000D01*
X165330000Y-139700000D02*
X165330000Y-138430000D01*
X165330000Y-138430000D02*
X166600000Y-138430000D01*
X170700000Y-138370000D02*
X168040000Y-138370000D01*
X170700000Y-139740000D02*
X176700000Y-139740000D01*
%TO.C,J14*%
X128620000Y-128210000D02*
X125960000Y-128210000D01*
X128620000Y-130870000D02*
X128620000Y-128210000D01*
X125960000Y-129380000D02*
X119960000Y-129380000D01*
X119960000Y-129160000D02*
X125960000Y-129160000D01*
X128950000Y-129920000D02*
X128620000Y-129920000D01*
X125960000Y-129620000D02*
X119960000Y-129620000D01*
X125960000Y-129860000D02*
X119960000Y-129860000D01*
X125960000Y-129920000D02*
X119960000Y-129920000D01*
X125960000Y-129740000D02*
X119960000Y-129740000D01*
X125960000Y-129260000D02*
X119960000Y-129260000D01*
X119960000Y-129920000D02*
X119960000Y-129160000D01*
X125960000Y-128210000D02*
X125960000Y-130870000D01*
X128950000Y-129160000D02*
X128620000Y-129160000D01*
X131330000Y-129540000D02*
X131330000Y-130810000D01*
X131330000Y-130810000D02*
X130060000Y-130810000D01*
X125960000Y-130870000D02*
X128620000Y-130870000D01*
X125960000Y-129500000D02*
X119960000Y-129500000D01*
%TO.C,J13*%
X94710000Y-42420000D02*
X92050000Y-42420000D01*
X94710000Y-45080000D02*
X94710000Y-42420000D01*
X92050000Y-43590000D02*
X86050000Y-43590000D01*
X86050000Y-43370000D02*
X92050000Y-43370000D01*
X95040000Y-44130000D02*
X94710000Y-44130000D01*
X92050000Y-43830000D02*
X86050000Y-43830000D01*
X92050000Y-44070000D02*
X86050000Y-44070000D01*
X92050000Y-44130000D02*
X86050000Y-44130000D01*
X92050000Y-43950000D02*
X86050000Y-43950000D01*
X92050000Y-43470000D02*
X86050000Y-43470000D01*
X86050000Y-44130000D02*
X86050000Y-43370000D01*
X92050000Y-42420000D02*
X92050000Y-45080000D01*
X95040000Y-43370000D02*
X94710000Y-43370000D01*
X97420000Y-43750000D02*
X97420000Y-45020000D01*
X97420000Y-45020000D02*
X96150000Y-45020000D01*
X92050000Y-45080000D02*
X94710000Y-45080000D01*
X92050000Y-43710000D02*
X86050000Y-43710000D01*
%TO.C,J12*%
X94710000Y-37340000D02*
X92050000Y-37340000D01*
X94710000Y-40000000D02*
X94710000Y-37340000D01*
X92050000Y-38510000D02*
X86050000Y-38510000D01*
X86050000Y-38290000D02*
X92050000Y-38290000D01*
X95040000Y-39050000D02*
X94710000Y-39050000D01*
X92050000Y-38750000D02*
X86050000Y-38750000D01*
X92050000Y-38990000D02*
X86050000Y-38990000D01*
X92050000Y-39050000D02*
X86050000Y-39050000D01*
X92050000Y-38870000D02*
X86050000Y-38870000D01*
X92050000Y-38390000D02*
X86050000Y-38390000D01*
X86050000Y-39050000D02*
X86050000Y-38290000D01*
X92050000Y-37340000D02*
X92050000Y-40000000D01*
X95040000Y-38290000D02*
X94710000Y-38290000D01*
X97420000Y-38670000D02*
X97420000Y-39940000D01*
X97420000Y-39940000D02*
X96150000Y-39940000D01*
X92050000Y-40000000D02*
X94710000Y-40000000D01*
X92050000Y-38630000D02*
X86050000Y-38630000D01*
%TO.C,J11*%
X115030000Y-103440000D02*
X112370000Y-103440000D01*
X115030000Y-106100000D02*
X115030000Y-103440000D01*
X112370000Y-104610000D02*
X106370000Y-104610000D01*
X106370000Y-104390000D02*
X112370000Y-104390000D01*
X115360000Y-105150000D02*
X115030000Y-105150000D01*
X112370000Y-104850000D02*
X106370000Y-104850000D01*
X112370000Y-105090000D02*
X106370000Y-105090000D01*
X112370000Y-105150000D02*
X106370000Y-105150000D01*
X112370000Y-104970000D02*
X106370000Y-104970000D01*
X112370000Y-104490000D02*
X106370000Y-104490000D01*
X106370000Y-105150000D02*
X106370000Y-104390000D01*
X112370000Y-103440000D02*
X112370000Y-106100000D01*
X115360000Y-104390000D02*
X115030000Y-104390000D01*
X117740000Y-104770000D02*
X117740000Y-106040000D01*
X117740000Y-106040000D02*
X116470000Y-106040000D01*
X112370000Y-106100000D02*
X115030000Y-106100000D01*
X112370000Y-104730000D02*
X106370000Y-104730000D01*
%TO.C,J10*%
X144322929Y-95435000D02*
X144720000Y-95435000D01*
X153380000Y-95435000D02*
X153380000Y-96195000D01*
X144390000Y-92895000D02*
X144720000Y-92895000D01*
X144322929Y-96195000D02*
X144720000Y-96195000D01*
X147380000Y-95435000D02*
X153380000Y-95435000D01*
X147380000Y-97145000D02*
X147380000Y-91945000D01*
X144390000Y-93655000D02*
X144720000Y-93655000D01*
X144720000Y-97145000D02*
X147380000Y-97145000D01*
X147380000Y-93315000D02*
X153380000Y-93315000D01*
X144720000Y-94545000D02*
X147380000Y-94545000D01*
X142010000Y-93275000D02*
X142010000Y-92005000D01*
X147380000Y-92955000D02*
X153380000Y-92955000D01*
X147380000Y-93555000D02*
X153380000Y-93555000D01*
X153380000Y-92895000D02*
X153380000Y-93655000D01*
X147380000Y-93075000D02*
X153380000Y-93075000D01*
X144720000Y-91945000D02*
X144720000Y-97145000D01*
X147380000Y-91945000D02*
X144720000Y-91945000D01*
X153380000Y-93655000D02*
X147380000Y-93655000D01*
X147380000Y-92895000D02*
X153380000Y-92895000D01*
X147380000Y-93195000D02*
X153380000Y-93195000D01*
X142010000Y-92005000D02*
X143280000Y-92005000D01*
X153380000Y-96195000D02*
X147380000Y-96195000D01*
X147380000Y-93435000D02*
X153380000Y-93435000D01*
%TO.C,J9*%
X144720000Y-90800000D02*
X147380000Y-90800000D01*
X144720000Y-88140000D02*
X144720000Y-90800000D01*
X147380000Y-89630000D02*
X153380000Y-89630000D01*
X153380000Y-89850000D02*
X147380000Y-89850000D01*
X144390000Y-89090000D02*
X144720000Y-89090000D01*
X147380000Y-89390000D02*
X153380000Y-89390000D01*
X147380000Y-89150000D02*
X153380000Y-89150000D01*
X147380000Y-89090000D02*
X153380000Y-89090000D01*
X147380000Y-89270000D02*
X153380000Y-89270000D01*
X147380000Y-89750000D02*
X153380000Y-89750000D01*
X153380000Y-89090000D02*
X153380000Y-89850000D01*
X147380000Y-90800000D02*
X147380000Y-88140000D01*
X144390000Y-89850000D02*
X144720000Y-89850000D01*
X142010000Y-89470000D02*
X142010000Y-88200000D01*
X142010000Y-88200000D02*
X143280000Y-88200000D01*
X147380000Y-88140000D02*
X144720000Y-88140000D01*
X147380000Y-89510000D02*
X153380000Y-89510000D01*
%TO.C,J8*%
X146325000Y-149465000D02*
X146325000Y-152125000D01*
X148985000Y-149465000D02*
X146325000Y-149465000D01*
X147495000Y-152125000D02*
X147495000Y-158125000D01*
X147275000Y-158125000D02*
X147275000Y-152125000D01*
X148035000Y-149135000D02*
X148035000Y-149465000D01*
X147735000Y-152125000D02*
X147735000Y-158125000D01*
X147975000Y-152125000D02*
X147975000Y-158125000D01*
X148035000Y-152125000D02*
X148035000Y-158125000D01*
X147855000Y-152125000D02*
X147855000Y-158125000D01*
X147375000Y-152125000D02*
X147375000Y-158125000D01*
X148035000Y-158125000D02*
X147275000Y-158125000D01*
X146325000Y-152125000D02*
X148985000Y-152125000D01*
X147275000Y-149135000D02*
X147275000Y-149465000D01*
X147655000Y-146755000D02*
X148925000Y-146755000D01*
X148925000Y-146755000D02*
X148925000Y-148025000D01*
X148985000Y-152125000D02*
X148985000Y-149465000D01*
X147615000Y-152125000D02*
X147615000Y-158125000D01*
%TO.C,J7*%
X128620000Y-123130000D02*
X125960000Y-123130000D01*
X128620000Y-125790000D02*
X128620000Y-123130000D01*
X125960000Y-124300000D02*
X119960000Y-124300000D01*
X119960000Y-124080000D02*
X125960000Y-124080000D01*
X128950000Y-124840000D02*
X128620000Y-124840000D01*
X125960000Y-124540000D02*
X119960000Y-124540000D01*
X125960000Y-124780000D02*
X119960000Y-124780000D01*
X125960000Y-124840000D02*
X119960000Y-124840000D01*
X125960000Y-124660000D02*
X119960000Y-124660000D01*
X125960000Y-124180000D02*
X119960000Y-124180000D01*
X119960000Y-124840000D02*
X119960000Y-124080000D01*
X125960000Y-123130000D02*
X125960000Y-125790000D01*
X128950000Y-124080000D02*
X128620000Y-124080000D01*
X131330000Y-124460000D02*
X131330000Y-125730000D01*
X131330000Y-125730000D02*
X130060000Y-125730000D01*
X125960000Y-125790000D02*
X128620000Y-125790000D01*
X125960000Y-124420000D02*
X119960000Y-124420000D01*
%TO.C,J6*%
X168040000Y-120710000D02*
X170700000Y-120710000D01*
X168040000Y-118050000D02*
X168040000Y-120710000D01*
X170700000Y-119540000D02*
X176700000Y-119540000D01*
X176700000Y-119760000D02*
X170700000Y-119760000D01*
X167710000Y-119000000D02*
X168040000Y-119000000D01*
X170700000Y-119300000D02*
X176700000Y-119300000D01*
X170700000Y-119060000D02*
X176700000Y-119060000D01*
X170700000Y-119000000D02*
X176700000Y-119000000D01*
X170700000Y-119180000D02*
X176700000Y-119180000D01*
X170700000Y-119660000D02*
X176700000Y-119660000D01*
X176700000Y-119000000D02*
X176700000Y-119760000D01*
X170700000Y-120710000D02*
X170700000Y-118050000D01*
X167710000Y-119760000D02*
X168040000Y-119760000D01*
X165330000Y-119380000D02*
X165330000Y-118110000D01*
X165330000Y-118110000D02*
X166600000Y-118110000D01*
X170700000Y-118050000D02*
X168040000Y-118050000D01*
X170700000Y-119420000D02*
X176700000Y-119420000D01*
%TO.C,J5*%
X151985000Y-117235000D02*
X151985000Y-114575000D01*
X149325000Y-117235000D02*
X151985000Y-117235000D01*
X150815000Y-114575000D02*
X150815000Y-108575000D01*
X151035000Y-108575000D02*
X151035000Y-114575000D01*
X150275000Y-117565000D02*
X150275000Y-117235000D01*
X150575000Y-114575000D02*
X150575000Y-108575000D01*
X150335000Y-114575000D02*
X150335000Y-108575000D01*
X150275000Y-114575000D02*
X150275000Y-108575000D01*
X150455000Y-114575000D02*
X150455000Y-108575000D01*
X150935000Y-114575000D02*
X150935000Y-108575000D01*
X150275000Y-108575000D02*
X151035000Y-108575000D01*
X151985000Y-114575000D02*
X149325000Y-114575000D01*
X151035000Y-117565000D02*
X151035000Y-117235000D01*
X150655000Y-119945000D02*
X149385000Y-119945000D01*
X149385000Y-119945000D02*
X149385000Y-118675000D01*
X149325000Y-114575000D02*
X149325000Y-117235000D01*
X150695000Y-114575000D02*
X150695000Y-108575000D01*
%TO.C,J4*%
X147335000Y-117235000D02*
X147335000Y-114575000D01*
X144675000Y-117235000D02*
X147335000Y-117235000D01*
X146165000Y-114575000D02*
X146165000Y-108575000D01*
X146385000Y-108575000D02*
X146385000Y-114575000D01*
X145625000Y-117565000D02*
X145625000Y-117235000D01*
X145925000Y-114575000D02*
X145925000Y-108575000D01*
X145685000Y-114575000D02*
X145685000Y-108575000D01*
X145625000Y-114575000D02*
X145625000Y-108575000D01*
X145805000Y-114575000D02*
X145805000Y-108575000D01*
X146285000Y-114575000D02*
X146285000Y-108575000D01*
X145625000Y-108575000D02*
X146385000Y-108575000D01*
X147335000Y-114575000D02*
X144675000Y-114575000D01*
X146385000Y-117565000D02*
X146385000Y-117235000D01*
X146005000Y-119945000D02*
X144735000Y-119945000D01*
X144735000Y-119945000D02*
X144735000Y-118675000D01*
X144675000Y-114575000D02*
X144675000Y-117235000D01*
X146045000Y-114575000D02*
X146045000Y-108575000D01*
%TO.C,J3*%
X128620000Y-133290000D02*
X125960000Y-133290000D01*
X128620000Y-135950000D02*
X128620000Y-133290000D01*
X125960000Y-134460000D02*
X119960000Y-134460000D01*
X119960000Y-134240000D02*
X125960000Y-134240000D01*
X128950000Y-135000000D02*
X128620000Y-135000000D01*
X125960000Y-134700000D02*
X119960000Y-134700000D01*
X125960000Y-134940000D02*
X119960000Y-134940000D01*
X125960000Y-135000000D02*
X119960000Y-135000000D01*
X125960000Y-134820000D02*
X119960000Y-134820000D01*
X125960000Y-134340000D02*
X119960000Y-134340000D01*
X119960000Y-135000000D02*
X119960000Y-134240000D01*
X125960000Y-133290000D02*
X125960000Y-135950000D01*
X128950000Y-134240000D02*
X128620000Y-134240000D01*
X131330000Y-134620000D02*
X131330000Y-135890000D01*
X131330000Y-135890000D02*
X130060000Y-135890000D01*
X125960000Y-135950000D02*
X128620000Y-135950000D01*
X125960000Y-134580000D02*
X119960000Y-134580000D01*
%TO.C,J2*%
X141447500Y-147767500D02*
X141447500Y-146437500D01*
X141447500Y-149037500D02*
X141447500Y-149097500D01*
X144107500Y-149037500D02*
X144107500Y-149097500D01*
X141447500Y-149097500D02*
X144107500Y-149097500D01*
X141447500Y-149037500D02*
X144107500Y-149037500D01*
X141447500Y-146437500D02*
X142777500Y-146437500D01*
%TO.C,J1*%
X128730000Y-139700000D02*
X128730000Y-138370000D01*
X128730000Y-140970000D02*
X128730000Y-141030000D01*
X131390000Y-140970000D02*
X131390000Y-141030000D01*
X128730000Y-141030000D02*
X131390000Y-141030000D01*
X128730000Y-140970000D02*
X131390000Y-140970000D01*
X128730000Y-138370000D02*
X130060000Y-138370000D01*
%TO.C,BT1*%
X85380002Y-115075002D02*
G75*
G03*
X85850001Y-114375000I-286281J700002D01*
G01*
X91950001Y-111925000D02*
G75*
G03*
X91400001Y-111375000I-549999J1D01*
G01*
X85380001Y-115075000D02*
G75*
G03*
X88900001Y-142625000I3520030J-13550125D01*
G01*
X91950004Y-114375000D02*
G75*
G03*
X92420001Y-115074999I756277J0D01*
G01*
X88900001Y-142625000D02*
G75*
G03*
X92420001Y-115075000I-31J13999875D01*
G01*
X86400001Y-111375000D02*
G75*
G03*
X85850001Y-111925000I-1J-549999D01*
G01*
X91400001Y-111375000D02*
X86400001Y-111375000D01*
X91950001Y-114375000D02*
X91950001Y-111925000D01*
X85850001Y-111925000D02*
X85850001Y-114375000D01*
%TD*%
M02*
