M48
; DRILL file {KiCad 7.0.5} date Mon Jun 26 00:26:20 2023
; FORMAT={-:-/ absolute / inch / decimal}
; #@! TF.CreationDate,2023-06-26T00:26:20-05:00
; #@! TF.GenerationSoftware,Kicad,Pcbnew,7.0.5
; #@! TF.FileFunction,Plated,1,2,PTH
FMAT,2
INCH
; #@! TA.AperFunction,Plated,PTH,ComponentDrill
T1C0.0079
; #@! TA.AperFunction,Plated,PTH,ComponentDrill
T2C0.0394
; #@! TA.AperFunction,Plated,PTH,ComponentDrill
T3C0.0591
%
G90
G05
T1
X5.1132Y-1.8324
X5.1132Y-1.8924
X5.1432Y-1.8024
X5.1432Y-1.8624
X5.1432Y-1.9224
X5.1732Y-1.8324
X5.1732Y-1.8924
X5.2032Y-1.8024
X5.2032Y-1.8624
X5.2032Y-1.9224
X5.2333Y-1.8324
X5.2333Y-1.8924
T2
X3.7854Y-1.5224
X3.7854Y-1.7224
X3.7854Y-1.9224
X3.7854Y-2.1224
X3.7854Y-2.3224
X3.7854Y-2.5224
X3.7854Y-2.7224
X3.7854Y-2.9224
X3.7854Y-3.1224
X3.7854Y-3.3224
X3.7854Y-3.5224
X4.5854Y-4.1248
X5.0112Y-2.677
X5.1205Y-4.9
X5.1205Y-5.1
X5.1205Y-5.3
X5.1205Y-5.5
X5.2Y-2.677
X5.4Y-2.677
X5.6212Y-5.8176
X5.6409Y-3.5224
X5.6409Y-3.6722
X5.6409Y-3.7722
X5.7482Y-4.6722
X5.8132Y-5.8278
X5.9313Y-4.6722
X6.5591Y-4.7
X6.5591Y-4.9
X6.5591Y-5.1
X6.5591Y-5.3
X6.5591Y-5.5
X6.6409Y-1.4224
X6.6409Y-1.6224
X6.6409Y-1.8224
X6.6409Y-2.0224
X6.6409Y-2.2224
X6.6409Y-2.4224
X6.6409Y-2.6224
X6.6409Y-2.8224
X6.6409Y-3.0224
X6.6409Y-3.2224
X6.6409Y-3.4224
X6.6458Y-3.6185
T3
X3.5Y-4.4656
X3.5Y-5.2722
T0
M30
